<?xml version="1.0" encoding="UTF-8"?>
<svg id="Vrstva_2" xmlns="http://www.w3.org/2000/svg" viewBox="0 0 33.42 28.31">
  <defs>
    <style>
      .cls-1 {
        fill: #fff;
      }
    </style>
  </defs>
  <g id="Elementy">
    <path class="cls-1" d="M16.31,11.95s13.43-1.81,17.11,4.67c0,0-6.13,12.09-17.87,11.68C3.81,27.89.77,22.81.72,18.6c-.06-4.2,7.3-7.12,7.3-7.12,0,0-1.05-.64-3.97-.53C1.13,11.07-.16,9.61.02,7.57c.18-2.04,3.87.37,5.08-1.75C6.63,3.11,7.61-.38,13.04.03c5.43.41,6.35,3.55,6.42,6.77.06,2.63-3.15,5.14-3.15,5.14Z"/>
  </g>
</svg>