<?xml version="1.0" encoding="UTF-8"?>
<svg id="Vrstva_2" xmlns="http://www.w3.org/2000/svg" viewBox="0 0 47.74 39.11">
  <defs>
    <style>
      .cls-1 {
        fill: #0070bb;
      }
    </style>
  </defs>
  <g id="Elementy">
    <g>
      <path class="cls-1" d="M2.52,23.63l-1.21.54c-.81.36-1.17,1.31-.81,2.12.27.6.85.95,1.47.95.22,0,.44-.04.65-.14l1.21-.54c.81-.36,1.17-1.31.81-2.12-.36-.81-1.31-1.18-2.12-.81Z"/>
      <path class="cls-1" d="M1.03,13.86l1.24.47c.19.07.38.11.57.11.65,0,1.25-.39,1.5-1.03.32-.83-.1-1.76-.92-2.07l-1.24-.47c-.82-.32-1.76.1-2.07.92-.32.83.1,1.76.92,2.07Z"/>
      <path class="cls-1" d="M9.81,4.58c.27.6.85.95,1.47.95.22,0,.44-.04.65-.14.81-.36,1.17-1.31.82-2.12l-.54-1.21c-.36-.81-1.31-1.17-2.12-.82-.81.36-1.17,1.31-.82,2.12l.54,1.21Z"/>
      <path class="cls-1" d="M22.98,5.1c.19.07.38.11.57.11.65,0,1.25-.39,1.5-1.03l.47-1.24c.32-.83-.1-1.76-.92-2.07-.82-.31-1.76.1-2.07.92l-.47,1.24c-.32.83.1,1.76.92,2.07Z"/>
      <path class="cls-1" d="M32.46,13.64c.22,0,.44-.04.65-.14l1.21-.54c.81-.36,1.17-1.31.81-2.12-.36-.81-1.31-1.18-2.12-.81l-1.21.54c-.81.36-1.17,1.31-.81,2.12.27.6.85.95,1.47.95Z"/>
      <rect class="cls-1" x="10.37" y="28.69" width="13.93" height="4.78"/>
      <path class="cls-1" d="M17.34,39.11c2.36,0,4.27-1.91,4.27-4.27h-8.54c0,2.36,1.91,4.27,4.27,4.27Z"/>
      <path class="cls-1" d="M36.38,17.12c-2.83,4.15-6.78,3.93-7.54,3.84.9-3.86-.12-8.08-3.12-11.08-4.47-4.48-12.28-4.48-16.76,0-2.24,2.24-3.47,5.21-3.47,8.38s1.23,6.14,3.47,8.38l.47.47h15.82l.47-.47c.82-.82,1.43-1.74,1.96-2.71.14.07.29.15.46.18.07.01.55.09,1.29.09,2.13,0,6.44-.64,9.6-5.27.5-.73.31-1.73-.42-2.23-.73-.5-1.73-.31-2.23.42ZM13.83,13c0-.89.72-1.61,1.61-1.61s1.61.72,1.61,1.61v2.25c0,.89-.72,1.61-1.61,1.61s-1.61-.72-1.61-1.61v-2.25ZM16.27,24.14c-.56.24-1.11.34-1.64.34-1.58,0-2.96-.93-3.79-1.92-.93-1.12-1.15-2.24-.6-3.08.45-.68,1.29-.95,2.14-.7.44.14.8.29,1.08.44.69.36,1.26.57,1.82.65.76.12,2.55.39,2.75,1.95.13.99-.47,1.77-1.77,2.32ZM22.79,15.26c0,.89-.72,1.61-1.61,1.61s-1.61-.72-1.61-1.61v-2.25c0-.89.72-1.61,1.61-1.61s1.61.72,1.61,1.61v2.25Z"/>
      <path class="cls-1" d="M46.89,2.11c-.74-1.06-1.86-1.78-3.13-2.02-1.26-.25-2.58.02-3.64.74h0c-1.02.7-1.77,1.8-2.08,3.17v.04c-.2,1.33.21,2.61,1.13,4.04l.05,1.07,2.17.42.72-3.73c.06-.29.34-.49.63-.43.29.06.49.34.43.64l-.72,3.73,2.21.43.57-1.19c1.31-.85,2.17-1.95,2.43-3.33.24-1.25-.04-2.54-.77-3.58ZM41.52,4.85c-.24.17-.58.11-.76-.13l-.61-.9c-.16-.24-.1-.57.14-.74.25-.17.58-.11.76.13l.61.9c.16.24.1.57-.14.74ZM43,3.9c-.3-.05-.49-.33-.44-.63l.2-1.07c.06-.29.34-.47.62-.42.3.05.49.33.44.63l-.21,1.07c-.06.29-.34.47-.62.42ZM45.68,4.88l-.9.61c-.25.17-.59.1-.75-.14-.17-.25-.1-.59.14-.75l.9-.61c.25-.17.59-.1.75.15.17.25.1.59-.14.75Z"/>
      <path class="cls-1" d="M39.31,11.36v.03c.05.34.2.64.43.87.23.24.54.41.88.48h0s1.47.28,1.47.28h.02c.33.04.67-.03.97-.19.29-.16.53-.41.67-.73l.42-.88-4.91-.95.05,1.09Z"/>
    </g>
  </g>
</svg>