<?xml version="1.0" encoding="UTF-8"?>
<svg id="Vrstva_2" xmlns="http://www.w3.org/2000/svg" viewBox="0 0 288.54 90.22">
  <defs>
    <style>
      .cls-1 {
        fill: #0070bb;
      }

      .cls-2 {
        fill: #0257a5;
      }

      .cls-3 {
        fill: #1d1d1b;
      }
    </style>
  </defs>
  <g id="Elementy">
    <g>
      <g>
        <g>
          <path class="cls-3" d="M111.75,17.11c.88,0,1.29.94,1.29,1.82,0,.97-.47,1.85-1.29,1.85h-4.59v18c0,.85-1.04,1.29-2.04,1.29s-2.04-.44-2.04-1.29v-18h-4.62c-.82,0-1.29-.85-1.29-1.85,0-.88.41-1.82,1.29-1.82h13.29Z"/>
          <path class="cls-3" d="M119.05,38.79c0,.63-.94,1.29-2.04,1.29-1.19,0-2.01-.66-2.01-1.29v-21.08c0-.75.82-1.26,2.01-1.26,1.1,0,2.04.5,2.04,1.26v9.65c.57-1.23,1.98-2.39,3.96-2.39,2.89,0,5.4,2.89,5.4,6.38v7.45c0,.85-1.04,1.29-2.04,1.29-.94,0-2.01-.44-2.01-1.29v-7.45c0-1.41-1.26-2.83-2.73-2.83-1.29,0-2.58,1.07-2.58,2.83v7.45Z"/>
          <path class="cls-3" d="M135.64,19.84c0,1.04-.97,1.98-2.2,1.98s-2.23-.94-2.23-1.98.97-1.98,2.23-1.98,2.2.91,2.2,1.98ZM135.48,26.41v12.38c0,.63-.91,1.29-2.04,1.29s-2.01-.66-2.01-1.29v-12.38c0-.75.85-1.26,2.01-1.26s2.04.5,2.04,1.26Z"/>
          <path class="cls-3" d="M142.68,38.79c0,.63-.94,1.29-2.04,1.29-1.19,0-2.01-.66-2.01-1.29v-12.38c0-.75.82-1.26,2.01-1.26.97,0,1.79.5,1.79,1.26v.94c.6-1.23,2.1-2.39,4.21-2.39,2.89,0,5.4,2.89,5.4,6.38v7.45c0,.85-1.04,1.29-2.04,1.29-.94,0-2.01-.44-2.01-1.29v-7.45c0-1.41-1.23-2.83-2.73-2.83-1.29,0-2.58,1.07-2.58,2.83v7.45Z"/>
          <path class="cls-3" d="M163.79,31.06l4.62,6.6c.16.22.22.44.22.66,0,.94-1.32,2.01-2.29,2.01-.41,0-.75-.19-1.01-.53l-4.24-6.25-1.95,1.79v3.46c0,.63-.94,1.29-2.07,1.29s-1.98-.66-1.98-1.29v-21.08c0-.75.82-1.26,1.98-1.26s2.07.5,2.07,1.26v13.16l5.91-5.56c.22-.19.5-.31.82-.31.88,0,1.98,1.04,1.98,1.95,0,.28-.13.53-.35.75l-3.71,3.36Z"/>
          <path class="cls-3" d="M189.97,17.7v21.08c0,.63-.85,1.29-2.01,1.29-1.01,0-1.82-.66-1.82-1.29v-.91c-.63,1.29-2.36,2.48-4.37,2.48-2.92,0-5.5-3.08-5.5-6.44v-2.58c0-3.49,2.51-6.38,5.59-6.38,1.95,0,3.36,1.16,4.05,2.39v-9.65c0-.75.91-1.26,2.04-1.26s2.01.5,2.01,1.26ZM180.32,33.92c0,1.45,1.26,2.89,2.73,2.89,1.6,0,2.86-1.67,2.86-2.32v-3.14c0-1.76-1.48-2.83-2.83-2.83-1.54,0-2.76,1.41-2.76,2.83v2.58Z"/>
          <path class="cls-3" d="M197.35,19.84c0,1.04-.97,1.98-2.2,1.98s-2.23-.94-2.23-1.98.97-1.98,2.23-1.98,2.2.91,2.2,1.98ZM197.19,26.41v12.38c0,.63-.91,1.29-2.04,1.29s-2.01-.66-2.01-1.29v-12.38c0-.75.85-1.26,2.01-1.26s2.04.5,2.04,1.26Z"/>
          <path class="cls-3" d="M204.42,25.15h3.83c.66,0,1.04.75,1.04,1.48s-.38,1.48-1.04,1.48h-3.83v10.71c0,.75-.97,1.26-2.07,1.26s-1.98-.5-1.98-1.26v-16.21c0-3.52,2.51-6.16,5.53-6.16h1.85c1.04,0,1.54.85,1.54,1.7s-.5,1.73-1.54,1.73h-1.01c-1.35,0-2.32.88-2.32,2.29v2.98Z"/>
          <path class="cls-3" d="M215.11,25.15h3.83c.66,0,1.04.75,1.04,1.48s-.38,1.48-1.04,1.48h-3.83v10.71c0,.75-.97,1.26-2.07,1.26s-1.98-.5-1.98-1.26v-16.21c0-3.52,2.51-6.16,5.53-6.16h1.85c1.04,0,1.54.85,1.54,1.7s-.5,1.73-1.54,1.73h-1.01c-1.35,0-2.32.88-2.32,2.29v2.98Z"/>
          <path class="cls-3" d="M234.18,30.87c0,2.67-1.51,2.8-2.92,2.8h-6.38v.47c0,1.82,1.48,3.02,3.68,3.02,2.07,0,2.92-1.19,3.86-1.19s1.54,1.16,1.54,1.79c0,1.07-2.17,2.61-5.53,2.61-4.46,0-7.6-2.58-7.6-6.44v-2.67c0-3.39,3.05-6.28,6.88-6.28,3.46,0,6.47,2.42,6.47,5.91ZM229.47,31.28c.66,0,.91-.16.91-.85,0-1.48-1.26-2.48-2.77-2.48-1.41,0-2.73.94-2.73,2.45v.88h4.59Z"/>
          <path class="cls-3" d="M244.27,28.51c-1.82,0-3.61,1.79-3.61,4.65v5.62c0,.63-.94,1.29-2.07,1.29s-1.98-.66-1.98-1.29v-12.38c0-.75.82-1.26,1.98-1.26,1.01,0,1.82.5,1.82,1.26v1.29c.63-1.35,2.14-2.73,3.86-2.73h.97c.75,0,1.48.82,1.48,1.76s-.72,1.79-1.48,1.79h-.97Z"/>
          <path class="cls-3" d="M260.92,30.87c0,2.67-1.51,2.8-2.92,2.8h-6.38v.47c0,1.82,1.48,3.02,3.68,3.02,2.07,0,2.92-1.19,3.86-1.19s1.54,1.16,1.54,1.79c0,1.07-2.17,2.61-5.53,2.61-4.46,0-7.6-2.58-7.6-6.44v-2.67c0-3.39,3.05-6.28,6.88-6.28,3.46,0,6.47,2.42,6.47,5.91ZM256.21,31.28c.66,0,.91-.16.91-.85,0-1.48-1.26-2.48-2.76-2.48-1.41,0-2.73.94-2.73,2.45v.88h4.59Z"/>
          <path class="cls-3" d="M267.39,38.79c0,.63-.94,1.29-2.04,1.29-1.19,0-2.01-.66-2.01-1.29v-12.38c0-.75.82-1.26,2.01-1.26.97,0,1.79.5,1.79,1.26v.94c.6-1.23,2.1-2.39,4.21-2.39,2.89,0,5.4,2.89,5.4,6.38v7.45c0,.85-1.04,1.29-2.04,1.29-.94,0-2.01-.44-2.01-1.29v-7.45c0-1.41-1.23-2.83-2.73-2.83-1.29,0-2.58,1.07-2.58,2.83v7.45Z"/>
          <path class="cls-3" d="M283.8,34.99c0,1.23.44,1.67,1.76,1.67h1.23c1.16,0,1.73.85,1.73,1.7s-.57,1.73-1.73,1.73h-1.23c-3.77,0-5.81-1.54-5.81-5.09v-15.24c0-.75,1.07-1.26,2.01-1.26,1.04,0,2.04.5,2.04,1.26v5.4h3.71c.66,0,1.04.75,1.04,1.48s-.38,1.48-1.04,1.48h-3.71v6.88Z"/>
        </g>
        <g>
          <path class="cls-3" d="M100.64,57.9s.02-.09.03-.15l2.96-9.64c.14-.46.71-.67,1.27-.67s1.15.21,1.29.67l2.96,9.64c.02.06.03.11.03.15,0,.48-.72.83-1.26.83-.34,0-.6-.11-.67-.4l-.58-2.04h-3.51l-.58,2.04c-.08.29-.34.4-.67.4-.54,0-1.26-.34-1.26-.83ZM106.24,54.73l-1.33-4.71-1.33,4.71h2.67Z"/>
          <path class="cls-3" d="M111,55.73v-1.23c0-1.76,1-3.14,3.31-3.14,1.44,0,2.45.6,2.45,1.2,0,.37-.31.97-.78.97-.34,0-.61-.43-1.52-.43-1.04,0-1.49.52-1.49,1.41v1.23c0,.89.44,1.41,1.5,1.41.92,0,1.15-.46,1.53-.46.54,0,.84.55.84.94,0,.61-1.09,1.26-2.53,1.26-2.31,0-3.33-1.35-3.33-3.14Z"/>
          <path class="cls-3" d="M124.8,54.35v3.76c0,.35-.41.63-.97.63-.51,0-.89-.28-.89-.63v-.44c-.55.63-1.27,1.21-2.33,1.21s-1.99-.64-1.99-2.04c0-1.76,1.46-2.25,3.57-2.25h.63v-.2c0-.66-.34-1.41-1.35-1.41-1.18,0-1.38.48-1.75.48-.44,0-.67-.54-.67-.98,0-.63,1.36-1.1,2.45-1.1,2.39,0,3.3,1.44,3.3,2.99ZM122.82,55.6h-.23c-1.03,0-1.99.11-1.99.97,0,.57.35.83.81.83.63,0,1.41-.72,1.41-1.47v-.32Z"/>
          <path class="cls-3" d="M133.84,47.82v10.29c0,.31-.41.63-.98.63-.49,0-.89-.32-.89-.63v-.44c-.31.63-1.15,1.21-2.13,1.21-1.43,0-2.68-1.5-2.68-3.14v-1.26c0-1.7,1.23-3.11,2.73-3.11.95,0,1.64.57,1.98,1.17v-4.71c0-.37.44-.61,1-.61s.98.25.98.61ZM129.14,55.73c0,.71.61,1.41,1.33,1.41.78,0,1.4-.81,1.4-1.13v-1.53c0-.86-.72-1.38-1.38-1.38-.75,0-1.35.69-1.35,1.38v1.26Z"/>
          <path class="cls-3" d="M142.78,54.24c0,1.3-.74,1.36-1.43,1.36h-3.11v.23c0,.89.72,1.47,1.79,1.47,1.01,0,1.43-.58,1.89-.58s.75.57.75.87c0,.52-1.06,1.27-2.7,1.27-2.18,0-3.71-1.26-3.71-3.14v-1.3c0-1.66,1.49-3.07,3.36-3.07,1.69,0,3.16,1.18,3.16,2.88ZM140.48,54.44c.32,0,.44-.08.44-.41,0-.72-.61-1.21-1.35-1.21-.69,0-1.33.46-1.33,1.2v.43h2.24Z"/>
          <path class="cls-3" d="M149.55,54.47c0-.86-.61-1.38-1.26-1.38-.6,0-1.2.48-1.2,1.38v3.63c0,.31-.46.63-1,.63-.58,0-.98-.32-.98-.63v-6.04c0-.37.4-.61.98-.61.48,0,.87.25.87.61v.46c.34-.6,1.01-1.17,2.02-1.17.87,0,1.59.63,1.92,1.53.54-1.04,1.43-1.53,2.31-1.53,1.4,0,2.73,1.12,2.73,3.11v3.63c0,.31-.46.63-1,.63s-.98-.32-.98-.63v-3.63c0-.92-.63-1.39-1.24-1.39s-1.21.49-1.21,1.38v3.66c0,.43-.51.61-1,.61-.46,0-.98-.18-.98-.61v-3.65Z"/>
          <path class="cls-3" d="M157.86,52.55c-.03-.08-.06-.17-.06-.26,0-.52.81-.95,1.32-.95.26,0,.49.09.57.34l1.84,4.58,1.49-4.58c.08-.25.31-.34.52-.34.48,0,1.35.43,1.35.98,0,.06-.02.15-.05.23l-2.24,5.72c-.72,1.84-1.15,3.85-3.89,3.85-.51,0-.9-.11-.9-.84,0-.44.14-.83.51-.83.67,0,2.09-.41,2.19-2.25l-2.64-5.64Z"/>
        </g>
      </g>
      <g>
        <g>
          <path class="cls-1" d="M44.56,34.31c-1.23,0-2.23,1-2.23,2.23v6.26c0,1.23,1,2.23,2.23,2.23s2.23-1,2.23-2.23v-6.26c0-1.23-1-2.23-2.23-2.23Z"/>
          <path class="cls-1" d="M36.58,34.31c-1.23,0-2.23,1-2.23,2.23v6.26c0,1.23,1,2.23,2.23,2.23s2.23-1,2.23-2.23v-6.26c0-1.23-1-2.23-2.23-2.23Z"/>
          <path class="cls-1" d="M41.22,0L0,12.16v54.26l41.22,23.79,41.22-23.79V12.16L41.22,0ZM47.11,18.98l.66-1.72c.44-1.15,1.74-1.72,2.88-1.28,1.15.44,1.73,1.73,1.28,2.88l-.66,1.72c-.34.89-1.18,1.43-2.08,1.43-.27,0-.54-.05-.8-.15-1.15-.44-1.73-1.73-1.28-2.88ZM30.49,16.52c1.13-.51,2.44,0,2.94,1.13l.75,1.68c.5,1.12,0,2.44-1.13,2.94-.29.13-.6.19-.91.19-.85,0-1.67-.49-2.04-1.32l-.75-1.68c-.5-1.12,0-2.44,1.13-2.94ZM16.62,31.15c.44-1.15,1.73-1.72,2.88-1.28l1.72.66c1.15.44,1.73,1.73,1.29,2.88-.34.89-1.18,1.43-2.08,1.43-.27,0-.54-.05-.8-.15l-1.72-.66c-1.15-.44-1.73-1.73-1.28-2.88ZM21.78,51.68l-1.68.75c-.29.13-.6.19-.91.19-.85,0-1.67-.49-2.04-1.32-.5-1.12,0-2.44,1.13-2.94l1.68-.75c1.12-.51,2.44,0,2.94,1.13.5,1.12,0,2.44-1.13,2.94ZM40.56,69.11c-3.28,0-5.93-2.66-5.93-5.93h11.86c0,3.28-2.65,5.93-5.93,5.93ZM50.24,61.28h-19.36v-6.64h19.36v6.64ZM52.2,51.78l-.65.65h-21.97l-.65-.65c-6.42-6.42-6.42-16.86,0-23.28,6.21-6.22,17.06-6.22,23.28,0,3.11,3.11,4.82,7.24,4.82,11.64s-1.71,8.53-4.82,11.64ZM60.66,29.47l1.68-.75c1.12-.5,2.44,0,2.94,1.13.5,1.12,0,2.44-1.13,2.94l-1.68.75c-.29.13-.6.19-.91.19-.85,0-1.67-.49-2.04-1.32-.5-1.12,0-2.44,1.13-2.94ZM65.82,50c-.34.89-1.18,1.43-2.08,1.43-.27,0-.54-.05-.8-.15l-1.72-.66c-1.15-.44-1.73-1.73-1.28-2.88.44-1.15,1.74-1.72,2.88-1.28l1.72.66c1.15.44,1.73,1.73,1.28,2.88Z"/>
        </g>
        <g>
          <path class="cls-2" d="M28.92,51.78c-6.42-6.42-6.42-16.86,0-23.28,3.27-3.27,7.81-4.78,12.3-4.61V0L0,12.16v54.26l41.22,23.79v-21.18c-.22.02-.43.07-.66.07-3.28,0-5.93-2.66-5.93-5.93h6.59v-1.9h-10.34v-6.64h10.34v-2.2h-11.64l-.65-.65ZM30.49,16.52c1.13-.51,2.44,0,2.94,1.13l.75,1.68c.5,1.12,0,2.44-1.13,2.94-.29.13-.6.19-.91.19-.85,0-1.67-.49-2.04-1.32l-.75-1.68c-.5-1.12,0-2.44,1.13-2.94ZM16.62,31.15c.44-1.15,1.73-1.72,2.88-1.28l1.72.66c1.15.44,1.73,1.73,1.29,2.88-.34.89-1.18,1.43-2.08,1.43-.27,0-.54-.05-.8-.15l-1.72-.66c-1.15-.44-1.73-1.73-1.28-2.88ZM21.78,51.68l-1.68.75c-.29.13-.6.19-.91.19-.85,0-1.67-.49-2.04-1.32-.5-1.12,0-2.44,1.13-2.94l1.68-.75c1.12-.51,2.44,0,2.94,1.13.5,1.12,0,2.44-1.13,2.94Z"/>
          <path class="cls-2" d="M36.58,34.31c-1.23,0-2.23,1-2.23,2.23v6.26c0,1.23,1,2.23,2.23,2.23s2.23-1,2.23-2.23v-6.26c0-1.23-1-2.23-2.23-2.23Z"/>
        </g>
      </g>
    </g>
  </g>
</svg>