<?xml version="1.0" encoding="UTF-8"?>
<svg id="Vrstva_2" xmlns="http://www.w3.org/2000/svg" viewBox="0 0 82.44 90.22">
  <defs>
    <style>
      .cls-1 {
        fill: #0070bb;
      }

      .cls-2 {
        fill: #0257a5;
      }
    </style>
  </defs>
  <g id="Elementy">
    <g>
      <g>
        <path class="cls-1" d="M44.56,34.31c-1.23,0-2.23,1-2.23,2.23v6.26c0,1.23,1,2.23,2.23,2.23s2.23-1,2.23-2.23v-6.26c0-1.23-1-2.23-2.23-2.23Z"/>
        <path class="cls-1" d="M36.58,34.31c-1.23,0-2.23,1-2.23,2.23v6.26c0,1.23,1,2.23,2.23,2.23s2.23-1,2.23-2.23v-6.26c0-1.23-1-2.23-2.23-2.23Z"/>
        <path class="cls-1" d="M41.22,0L0,12.16v54.26l41.22,23.79,41.22-23.79V12.16L41.22,0ZM47.11,18.98l.66-1.72c.44-1.15,1.74-1.72,2.88-1.28,1.15.44,1.73,1.73,1.28,2.88l-.66,1.72c-.34.89-1.18,1.43-2.08,1.43-.27,0-.54-.05-.8-.15-1.15-.44-1.73-1.73-1.28-2.88ZM30.49,16.52c1.13-.51,2.44,0,2.94,1.13l.75,1.68c.5,1.12,0,2.44-1.13,2.94-.29.13-.6.19-.91.19-.85,0-1.67-.49-2.04-1.32l-.75-1.68c-.5-1.12,0-2.44,1.13-2.94ZM16.62,31.15c.44-1.15,1.73-1.72,2.88-1.28l1.72.66c1.15.44,1.73,1.73,1.29,2.88-.34.89-1.18,1.43-2.08,1.43-.27,0-.54-.05-.8-.15l-1.72-.66c-1.15-.44-1.73-1.73-1.28-2.88ZM21.78,51.68l-1.68.75c-.29.13-.6.19-.91.19-.85,0-1.67-.49-2.04-1.32-.5-1.12,0-2.44,1.13-2.94l1.68-.75c1.12-.51,2.44,0,2.94,1.13.5,1.12,0,2.44-1.13,2.94ZM40.56,69.11c-3.28,0-5.93-2.66-5.93-5.93h11.86c0,3.28-2.65,5.93-5.93,5.93ZM50.24,61.28h-19.36v-6.64h19.36v6.64ZM52.2,51.78l-.65.65h-21.97l-.65-.65c-6.42-6.42-6.42-16.86,0-23.28,6.21-6.22,17.06-6.22,23.28,0,3.11,3.11,4.82,7.24,4.82,11.64s-1.71,8.53-4.82,11.64ZM60.66,29.47l1.68-.75c1.12-.5,2.44,0,2.94,1.13.5,1.12,0,2.44-1.13,2.94l-1.68.75c-.29.13-.6.19-.91.19-.85,0-1.67-.49-2.04-1.32-.5-1.12,0-2.44,1.13-2.94ZM65.82,50c-.34.89-1.18,1.43-2.08,1.43-.27,0-.54-.05-.8-.15l-1.72-.66c-1.15-.44-1.73-1.73-1.28-2.88.44-1.15,1.74-1.72,2.88-1.28l1.72.66c1.15.44,1.73,1.73,1.28,2.88Z"/>
      </g>
      <g>
        <path class="cls-2" d="M28.92,51.78c-6.42-6.42-6.42-16.86,0-23.28,3.27-3.27,7.81-4.78,12.3-4.61V0L0,12.16v54.26l41.22,23.79v-21.18c-.22.02-.43.07-.66.07-3.28,0-5.93-2.66-5.93-5.93h6.59v-1.9h-10.34v-6.64h10.34v-2.2h-11.64l-.65-.65ZM30.49,16.52c1.13-.51,2.44,0,2.94,1.13l.75,1.68c.5,1.12,0,2.44-1.13,2.94-.29.13-.6.19-.91.19-.85,0-1.67-.49-2.04-1.32l-.75-1.68c-.5-1.12,0-2.44,1.13-2.94ZM16.62,31.15c.44-1.15,1.73-1.72,2.88-1.28l1.72.66c1.15.44,1.73,1.73,1.29,2.88-.34.89-1.18,1.43-2.08,1.43-.27,0-.54-.05-.8-.15l-1.72-.66c-1.15-.44-1.73-1.73-1.28-2.88ZM21.78,51.68l-1.68.75c-.29.13-.6.19-.91.19-.85,0-1.67-.49-2.04-1.32-.5-1.12,0-2.44,1.13-2.94l1.68-.75c1.12-.51,2.44,0,2.94,1.13.5,1.12,0,2.44-1.13,2.94Z"/>
        <path class="cls-2" d="M36.58,34.31c-1.23,0-2.23,1-2.23,2.23v6.26c0,1.23,1,2.23,2.23,2.23s2.23-1,2.23-2.23v-6.26c0-1.23-1-2.23-2.23-2.23Z"/>
      </g>
    </g>
  </g>
</svg>