<?xml version="1.0" encoding="UTF-8"?>
<svg id="Vrstva_2" xmlns="http://www.w3.org/2000/svg" version="1.1" viewBox="0 0 193 141.1">
  <!-- Generator: Adobe Illustrator 29.0.0, SVG Export Plug-In . SVG Version: 2.1.0 Build 186)  -->
  <defs>
    <style>
      .st0 {
        fill: #0070bb;
      }

      .st1 {
        fill: #fff;
      }

      .st2 {
        fill: #0257a5;
      }
    </style>
  </defs>
  <g id="Elementy">
    <g>
      <g>
        <path class="st1" d="M14.7,93.1c.9,0,1.3.9,1.3,1.8s-.5,1.9-1.3,1.9h-4.6v18.2c0,.9-1.1,1.3-2.1,1.3s-2.1-.4-2.1-1.3v-18.2H1.3c-.8,0-1.3-.9-1.3-1.9s.4-1.8,1.3-1.8c0,0,13.4,0,13.4,0Z"/>
        <path class="st1" d="M22.1,115c0,.6-1,1.3-2.1,1.3s-2-.7-2-1.3v-21.3c0-.8.8-1.3,2-1.3s2.1.5,2.1,1.3v9.7c.6-1.2,2-2.4,4-2.4,2.9,0,5.5,2.9,5.5,6.4v7.5c0,.9-1,1.3-2.1,1.3s-2-.4-2-1.3v-7.5c0-1.4-1.3-2.8-2.8-2.8s-2.6,1.1-2.6,2.8v7.5h0Z"/>
        <path class="st1" d="M38.8,95.9c0,1.1-1,2-2.2,2s-2.2-.9-2.2-2,1-2,2.2-2,2.2.9,2.2,2ZM38.6,102.5v12.5c0,.6-.9,1.3-2.1,1.3s-2-.7-2-1.3v-12.5c0-.8.9-1.3,2-1.3s2.1.5,2.1,1.3Z"/>
        <path class="st1" d="M45.9,115c0,.6-1,1.3-2.1,1.3s-2-.7-2-1.3v-12.5c0-.8.8-1.3,2-1.3s1.8.5,1.8,1.3v.9c.6-1.2,2.1-2.4,4.2-2.4s5.5,2.9,5.5,6.4v7.5c0,.9-1,1.3-2.1,1.3s-2-.4-2-1.3v-7.5c0-1.4-1.2-2.8-2.8-2.8s-2.6,1.1-2.6,2.8v7.5h0Z"/>
        <path class="st1" d="M67.2,107.2l4.7,6.7c.2.2.2.4.2.7,0,.9-1.3,2-2.3,2s-.8-.2-1-.5l-4.3-6.3-2,1.8v3.5c0,.6-1,1.3-2.1,1.3s-2-.7-2-1.3v-21.3c0-.8.8-1.3,2-1.3s2.1.5,2.1,1.3v13.3l6-5.6c.2-.2.5-.3.8-.3.9,0,2,1.1,2,2s-.1.5-.3.8l-3.7,3.4h0Z"/>
        <path class="st1" d="M93.6,93.7v21.3c0,.6-.9,1.3-2,1.3s-1.8-.7-1.8-1.3v-.9c-.6,1.3-2.4,2.5-4.4,2.5-2.9,0-5.6-3.1-5.6-6.5v-2.6c0-3.5,2.5-6.4,5.6-6.4s3.4,1.2,4.1,2.4v-9.7c0-.8.9-1.3,2.1-1.3s2,.5,2,1.3h0ZM83.9,110.1c0,1.5,1.3,2.9,2.8,2.9s2.9-1.7,2.9-2.3v-3.2c0-1.8-1.5-2.8-2.8-2.8s-2.8,1.4-2.8,2.8v2.6Z"/>
        <path class="st1" d="M101,95.9c0,1.1-1,2-2.2,2s-2.2-.9-2.2-2,1-2,2.2-2,2.2.9,2.2,2ZM100.9,102.5v12.5c0,.6-.9,1.3-2.1,1.3s-2-.7-2-1.3v-12.5c0-.8.9-1.3,2-1.3s2.1.5,2.1,1.3Z"/>
        <path class="st1" d="M108.2,101.2h3.9c.7,0,1.1.8,1.1,1.5s-.4,1.5-1.1,1.5h-3.9v10.8c0,.8-1,1.3-2.1,1.3s-2-.5-2-1.3v-16.3c0-3.6,2.5-6.2,5.6-6.2h1.9c1.1,0,1.6.9,1.6,1.7s-.5,1.7-1.6,1.7h-1c-1.4,0-2.3.9-2.3,2.3,0,0,0,3,0,3Z"/>
        <path class="st1" d="M118.9,101.2h3.9c.7,0,1.1.8,1.1,1.5s-.4,1.5-1.1,1.5h-3.9v10.8c0,.8-1,1.3-2.1,1.3s-2-.5-2-1.3v-16.3c0-3.6,2.5-6.2,5.6-6.2h1.9c1.1,0,1.6.9,1.6,1.7s-.5,1.7-1.6,1.7h-1c-1.4,0-2.3.9-2.3,2.3,0,0,0,3,0,3Z"/>
        <path class="st1" d="M138.2,107c0,2.7-1.5,2.8-2.9,2.8h-6.4v.5c0,1.8,1.5,3,3.7,3s2.9-1.2,3.9-1.2,1.6,1.2,1.6,1.8c0,1.1-2.2,2.6-5.6,2.6s-7.7-2.6-7.7-6.5v-2.7c0-3.4,3.1-6.3,6.9-6.3s6.5,2.4,6.5,6h0ZM133.4,107.4c.7,0,.9-.2.9-.9,0-1.5-1.3-2.5-2.8-2.5s-2.8.9-2.8,2.5v.9h4.6,0Z"/>
        <path class="st1" d="M148.4,104.6c-1.8,0-3.6,1.8-3.6,4.7v5.7c0,.6-.9,1.3-2.1,1.3s-2-.7-2-1.3v-12.5c0-.8.8-1.3,2-1.3s1.8.5,1.8,1.3v1.3c.6-1.4,2.2-2.8,3.9-2.8h1c.8,0,1.5.8,1.5,1.8s-.7,1.8-1.5,1.8h-1Z"/>
        <path class="st1" d="M165.1,107c0,2.7-1.5,2.8-2.9,2.8h-6.4v.5c0,1.8,1.5,3,3.7,3s2.9-1.2,3.9-1.2,1.6,1.2,1.6,1.8c0,1.1-2.2,2.6-5.6,2.6s-7.7-2.6-7.7-6.5v-2.7c0-3.4,3.1-6.3,6.9-6.3s6.5,2.4,6.5,6h0ZM160.4,107.4c.7,0,.9-.2.9-.9,0-1.5-1.3-2.5-2.8-2.5s-2.8.9-2.8,2.5v.9h4.6,0Z"/>
        <path class="st1" d="M171.7,115c0,.6-.9,1.3-2.1,1.3s-2-.7-2-1.3v-12.5c0-.8.8-1.3,2-1.3s1.8.5,1.8,1.3v.9c.6-1.2,2.1-2.4,4.2-2.4s5.4,2.9,5.4,6.4v7.5c0,.9-1.1,1.3-2.1,1.3s-2-.4-2-1.3v-7.5c0-1.4-1.2-2.8-2.8-2.8s-2.6,1.1-2.6,2.8v7.5h0Z"/>
        <path class="st1" d="M188.2,111.1c0,1.2.4,1.7,1.8,1.7h1.2c1.2,0,1.7.9,1.7,1.7s-.6,1.7-1.7,1.7h-1.2c-3.8,0-5.9-1.6-5.9-5.1v-15.4c0-.8,1.1-1.3,2-1.3s2.1.5,2.1,1.3v5.4h3.7c.7,0,1.1.8,1.1,1.5s-.4,1.5-1.1,1.5h-3.7v6.9Z"/>
      </g>
      <g>
        <path class="st1" d="M64.6,136.9s0,0,0-.1l2.9-9.6c.1-.5.7-.7,1.3-.7s1.1.2,1.3.7l2.9,9.6c0,0,0,.1,0,.1,0,.5-.7.8-1.2.8s-.6-.1-.7-.4l-.6-2h-3.5l-.6,2c0,.3-.3.4-.7.4-.5,0-1.2-.3-1.2-.8h0ZM70.2,133.7l-1.3-4.7-1.3,4.7h2.7Z"/>
        <path class="st1" d="M74.9,134.7v-1.2c0-1.8,1-3.1,3.3-3.1s2.4.6,2.4,1.2-.3,1-.8,1-.6-.4-1.5-.4-1.5.5-1.5,1.4v1.2c0,.9.4,1.4,1.5,1.4s1.1-.5,1.5-.5.8.6.8.9c0,.6-1.1,1.2-2.5,1.2-2.3,0-3.3-1.3-3.3-3.1h0Z"/>
        <path class="st1" d="M88.7,133.4v3.7c0,.4-.4.6-1,.6s-.9-.3-.9-.6v-.4c-.6.6-1.3,1.2-2.3,1.2s-2-.6-2-2,1.4-2.2,3.6-2.2h.6v-.2c0-.7-.3-1.4-1.3-1.4s-1.4.5-1.7.5-.7-.5-.7-1,1.4-1.1,2.4-1.1c2.4,0,3.3,1.4,3.3,3h0ZM86.7,134.6h-.2c-1,0-2,.1-2,1s.3.8.8.8,1.4-.7,1.4-1.5c0,0,0-.3,0-.3Z"/>
        <path class="st1" d="M97.7,126.8v10.2c0,.3-.4.6-1,.6s-.9-.3-.9-.6v-.4c-.3.6-1.1,1.2-2.1,1.2-1.4,0-2.7-1.5-2.7-3.1v-1.2c0-1.7,1.2-3.1,2.7-3.1s1.6.6,2,1.2v-4.7c0-.4.4-.6,1-.6s1,.2,1,.6h0ZM93,134.7c0,.7.6,1.4,1.3,1.4s1.4-.8,1.4-1.1v-1.5c0-.9-.7-1.4-1.4-1.4s-1.3.7-1.3,1.4v1.2h0Z"/>
        <path class="st1" d="M106.6,133.2c0,1.3-.7,1.4-1.4,1.4h-3.1v.2c0,.9.7,1.5,1.8,1.5s1.4-.6,1.9-.6.8.6.8.9c0,.5-1.1,1.3-2.7,1.3s-3.7-1.2-3.7-3.1v-1.3c0-1.6,1.5-3.1,3.3-3.1s3.1,1.2,3.1,2.9h0ZM104.3,133.4c.3,0,.4,0,.4-.4,0-.7-.6-1.2-1.3-1.2s-1.3.5-1.3,1.2v.4h2.2,0Z"/>
        <path class="st1" d="M113.3,133.5c0-.9-.6-1.4-1.2-1.4s-1.2.5-1.2,1.4v3.6c0,.3-.5.6-1,.6s-1-.3-1-.6v-6c0-.4.4-.6,1-.6s.9.2.9.6v.5c.3-.6,1-1.2,2-1.2s1.6.6,1.9,1.5c.5-1,1.4-1.5,2.3-1.5,1.4,0,2.7,1.1,2.7,3.1v3.6c0,.3-.5.6-1,.6s-1-.3-1-.6v-3.6c0-.9-.6-1.4-1.2-1.4s-1.2.5-1.2,1.4v3.6c0,.4-.5.6-1,.6s-1-.2-1-.6v-3.6h0Z"/>
        <path class="st1" d="M121.6,131.6c0,0,0-.2,0-.3,0-.5.8-.9,1.3-.9s.5,0,.6.3l1.8,4.6,1.5-4.6c0-.2.3-.3.5-.3.5,0,1.3.4,1.3,1s0,.1,0,.2l-2.2,5.7c-.7,1.8-1.1,3.8-3.9,3.8s-.9-.1-.9-.8.1-.8.5-.8c.7,0,2.1-.4,2.2-2.2l-2.6-5.6h0Z"/>
      </g>
      <g>
        <g>
          <path class="st0" d="M98.9,26.8c-1,0-1.7.8-1.7,1.7v4.9c0,1,.8,1.7,1.7,1.7s1.7-.8,1.7-1.7v-4.9c0-1-.8-1.7-1.7-1.7Z"/>
          <path class="st0" d="M92.7,26.8c-1,0-1.7.8-1.7,1.7v4.9c0,1,.8,1.7,1.7,1.7s1.7-.8,1.7-1.7v-4.9c0-1-.8-1.7-1.7-1.7Z"/>
          <path class="st0" d="M96.3,0l-32.2,9.5v42.4l32.2,18.6,32.2-18.6V9.5L96.3,0ZM100.9,14.8l.5-1.3c.3-.9,1.4-1.3,2.2-1,.9.3,1.3,1.4,1,2.2l-.5,1.3c-.3.7-.9,1.1-1.6,1.1s-.4,0-.6-.1c-.9-.3-1.3-1.4-1-2.2ZM87.9,12.9c.9-.4,1.9,0,2.3.9l.6,1.3c.4.9,0,1.9-.9,2.3-.2.1-.5.1-.7.1-.7,0-1.3-.4-1.6-1l-.6-1.3c-.4-.9,0-1.9.9-2.3ZM77.1,24.4c.3-.9,1.4-1.3,2.2-1l1.3.5c.9.3,1.3,1.4,1,2.2-.3.7-.9,1.1-1.6,1.1s-.4,0-.6-.1l-1.3-.5c-.9-.3-1.3-1.4-1-2.2h0ZM81.1,40.4l-1.3.6c-.2,0-.5.2-.7.2-.7,0-1.3-.4-1.6-1-.4-.9,0-1.9.9-2.3l1.3-.6c.9-.4,1.9,0,2.3.9s0,1.9-.9,2.3ZM95.8,54c-2.6,0-4.6-2.1-4.6-4.6h9.3c0,2.6-2.1,4.6-4.6,4.6h0ZM103.4,47.9h-15.1v-5.2h15.1v5.2ZM104.9,40.5l-.5.5h-17.2l-.5-.5c-5-5-5-13.2,0-18.2,4.9-4.9,13.3-4.9,18.2,0s3.8,5.7,3.8,9.1-1.3,6.7-3.8,9.1ZM111.5,23l1.3-.6c.9-.4,1.9,0,2.3.9s0,1.9-.9,2.3l-1.3.6c-.2.1-.5.1-.7.1-.7,0-1.3-.4-1.6-1-.4-.9,0-1.9.9-2.3ZM115.6,39.1c-.3.7-.9,1.1-1.6,1.1s-.4,0-.6-.1l-1.3-.5c-.9-.3-1.3-1.3-1-2.2.3-.9,1.4-1.3,2.2-1l1.3.5c.9.3,1.3,1.3,1,2.2Z"/>
        </g>
        <g>
          <path class="st2" d="M86.7,40.5c-5-5-5-13.2,0-18.2,2.6-2.6,6.1-3.7,9.6-3.6V0l-32.2,9.5v42.4l32.2,18.6v-16.6c-.2,0-.3,0-.5,0-2.6,0-4.6-2.1-4.6-4.6h5.2v-1.5h-8.1v-5.2h8.1v-1.7h-9.1l-.5-.5h0ZM87.9,12.9c.9-.4,1.9,0,2.3.9l.6,1.3c.4.9,0,1.9-.9,2.3-.2.1-.5.1-.7.1-.7,0-1.3-.4-1.6-1l-.6-1.3c-.4-.9,0-1.9.9-2.3ZM77.1,24.4c.3-.9,1.4-1.3,2.2-1l1.3.5c.9.3,1.3,1.4,1,2.2-.3.7-.9,1.1-1.6,1.1s-.4,0-.6-.1l-1.3-.5c-.9-.3-1.3-1.4-1-2.2ZM81.1,40.4l-1.3.6c-.2,0-.5.2-.7.2-.7,0-1.3-.4-1.6-1-.4-.9,0-1.9.9-2.3l1.3-.6c.9-.4,1.9,0,2.3.9s0,1.9-.9,2.3Z"/>
          <path class="st2" d="M92.7,26.8c-1,0-1.7.8-1.7,1.7v4.9c0,1,.8,1.7,1.7,1.7s1.7-.8,1.7-1.7v-4.9c0-1-.8-1.7-1.7-1.7Z"/>
        </g>
      </g>
    </g>
  </g>
</svg>