<?xml version="1.0" encoding="UTF-8"?>
<svg id="Vrstva_2" xmlns="http://www.w3.org/2000/svg" viewBox="0 0 193 141.08">
  <defs>
    <style>
      .cls-1 {
        fill: #0070bb;
      }

      .cls-2 {
        fill: #0257a5;
      }

      .cls-3 {
        fill: #1d1d1b;
      }
    </style>
  </defs>
  <g id="Elementy">
    <g>
      <g>
        <path class="cls-3" d="M14.71,93.11c.89,0,1.3.95,1.3,1.84,0,.98-.48,1.87-1.3,1.87h-4.63v18.16c0,.86-1.05,1.3-2.06,1.3s-2.06-.44-2.06-1.3v-18.16H1.3c-.82,0-1.3-.86-1.3-1.87,0-.89.41-1.84,1.3-1.84h13.41Z"/>
        <path class="cls-3" d="M22.06,114.98c0,.63-.95,1.3-2.06,1.3-1.2,0-2.03-.67-2.03-1.3v-21.27c0-.76.82-1.27,2.03-1.27,1.11,0,2.06.51,2.06,1.27v9.73c.57-1.24,2-2.41,3.99-2.41,2.92,0,5.45,2.92,5.45,6.43v7.51c0,.86-1.05,1.3-2.06,1.3-.95,0-2.03-.44-2.03-1.3v-7.51c0-1.43-1.27-2.85-2.76-2.85-1.3,0-2.6,1.08-2.6,2.85v7.51Z"/>
        <path class="cls-3" d="M38.79,95.87c0,1.05-.98,2-2.22,2s-2.25-.95-2.25-2,.98-2,2.25-2,2.22.92,2.22,2ZM38.63,102.49v12.49c0,.63-.92,1.3-2.06,1.3s-2.03-.67-2.03-1.3v-12.49c0-.76.86-1.27,2.03-1.27s2.06.51,2.06,1.27Z"/>
        <path class="cls-3" d="M45.89,114.98c0,.63-.95,1.3-2.06,1.3-1.2,0-2.03-.67-2.03-1.3v-12.49c0-.76.82-1.27,2.03-1.27.98,0,1.81.51,1.81,1.27v.95c.6-1.24,2.12-2.41,4.25-2.41,2.92,0,5.45,2.92,5.45,6.43v7.51c0,.86-1.05,1.3-2.06,1.3-.95,0-2.03-.44-2.03-1.3v-7.51c0-1.43-1.24-2.85-2.76-2.85-1.3,0-2.6,1.08-2.6,2.85v7.51Z"/>
        <path class="cls-3" d="M67.19,107.18l4.66,6.66c.16.22.22.44.22.67,0,.95-1.33,2.03-2.31,2.03-.41,0-.76-.19-1.01-.54l-4.28-6.31-1.97,1.81v3.49c0,.63-.95,1.3-2.09,1.3s-2-.67-2-1.3v-21.27c0-.76.82-1.27,2-1.27s2.09.51,2.09,1.27v13.28l5.96-5.61c.22-.19.51-.32.82-.32.89,0,2,1.05,2,1.96,0,.29-.13.54-.35.76l-3.74,3.39Z"/>
        <path class="cls-3" d="M93.59,93.71v21.27c0,.63-.86,1.3-2.03,1.3-1.01,0-1.84-.67-1.84-1.3v-.92c-.63,1.3-2.38,2.5-4.41,2.5-2.95,0-5.55-3.11-5.55-6.5v-2.6c0-3.52,2.54-6.43,5.64-6.43,1.96,0,3.39,1.17,4.09,2.41v-9.73c0-.76.92-1.27,2.06-1.27s2.03.51,2.03,1.27ZM83.86,110.07c0,1.46,1.27,2.92,2.76,2.92,1.62,0,2.88-1.68,2.88-2.35v-3.17c0-1.77-1.49-2.85-2.85-2.85-1.55,0-2.79,1.43-2.79,2.85v2.6Z"/>
        <path class="cls-3" d="M101.03,95.87c0,1.05-.98,2-2.22,2s-2.25-.95-2.25-2,.98-2,2.25-2,2.22.92,2.22,2ZM100.87,102.49v12.49c0,.63-.92,1.3-2.06,1.3s-2.03-.67-2.03-1.3v-12.49c0-.76.86-1.27,2.03-1.27s2.06.51,2.06,1.27Z"/>
        <path class="cls-3" d="M108.16,101.22h3.87c.67,0,1.05.76,1.05,1.49s-.38,1.49-1.05,1.49h-3.87v10.81c0,.76-.98,1.27-2.09,1.27s-2-.51-2-1.27v-16.35c0-3.55,2.54-6.21,5.58-6.21h1.87c1.05,0,1.55.86,1.55,1.71s-.51,1.74-1.55,1.74h-1.01c-1.36,0-2.35.89-2.35,2.31v3.01Z"/>
        <path class="cls-3" d="M118.94,101.22h3.87c.67,0,1.05.76,1.05,1.49s-.38,1.49-1.05,1.49h-3.87v10.81c0,.76-.98,1.27-2.09,1.27s-2-.51-2-1.27v-16.35c0-3.55,2.54-6.21,5.58-6.21h1.87c1.05,0,1.55.86,1.55,1.71s-.51,1.74-1.55,1.74h-1.01c-1.36,0-2.35.89-2.35,2.31v3.01Z"/>
        <path class="cls-3" d="M138.18,106.99c0,2.69-1.52,2.82-2.95,2.82h-6.43v.48c0,1.84,1.49,3.04,3.71,3.04,2.09,0,2.95-1.2,3.9-1.2s1.55,1.17,1.55,1.81c0,1.08-2.19,2.63-5.58,2.63-4.5,0-7.67-2.6-7.67-6.5v-2.69c0-3.42,3.07-6.34,6.94-6.34,3.49,0,6.53,2.44,6.53,5.96ZM133.42,107.4c.67,0,.92-.16.92-.86,0-1.49-1.27-2.5-2.79-2.5-1.43,0-2.76.95-2.76,2.47v.89h4.63Z"/>
        <path class="cls-3" d="M148.35,104.61c-1.84,0-3.64,1.81-3.64,4.69v5.67c0,.63-.95,1.3-2.09,1.3s-2-.67-2-1.3v-12.49c0-.76.82-1.27,2-1.27,1.01,0,1.84.51,1.84,1.27v1.3c.63-1.36,2.16-2.76,3.9-2.76h.98c.76,0,1.49.82,1.49,1.77s-.73,1.81-1.49,1.81h-.98Z"/>
        <path class="cls-3" d="M165.15,106.99c0,2.69-1.52,2.82-2.95,2.82h-6.43v.48c0,1.84,1.49,3.04,3.71,3.04,2.09,0,2.95-1.2,3.9-1.2s1.55,1.17,1.55,1.81c0,1.08-2.19,2.63-5.58,2.63-4.5,0-7.67-2.6-7.67-6.5v-2.69c0-3.42,3.07-6.34,6.94-6.34,3.49,0,6.53,2.44,6.53,5.96ZM160.39,107.4c.67,0,.92-.16.92-.86,0-1.49-1.27-2.5-2.79-2.5-1.43,0-2.76.95-2.76,2.47v.89h4.63Z"/>
        <path class="cls-3" d="M171.67,114.98c0,.63-.95,1.3-2.06,1.3-1.2,0-2.03-.67-2.03-1.3v-12.49c0-.76.82-1.27,2.03-1.27.98,0,1.81.51,1.81,1.27v.95c.6-1.24,2.12-2.41,4.25-2.41,2.92,0,5.45,2.92,5.45,6.43v7.51c0,.86-1.05,1.3-2.06,1.3-.95,0-2.03-.44-2.03-1.3v-7.51c0-1.43-1.24-2.85-2.76-2.85-1.3,0-2.6,1.08-2.6,2.85v7.51Z"/>
        <path class="cls-3" d="M188.22,111.14c0,1.24.44,1.68,1.77,1.68h1.24c1.17,0,1.74.86,1.74,1.71s-.57,1.74-1.74,1.74h-1.24c-3.8,0-5.86-1.55-5.86-5.13v-15.37c0-.76,1.08-1.27,2.03-1.27,1.05,0,2.06.51,2.06,1.27v5.45h3.74c.67,0,1.05.76,1.05,1.49s-.38,1.49-1.05,1.49h-3.74v6.94Z"/>
      </g>
      <g>
        <path class="cls-3" d="M64.61,136.89s.02-.09.03-.15l2.95-9.6c.14-.46.7-.67,1.27-.67s1.14.21,1.28.67l2.95,9.6c.02.06.03.11.03.15,0,.47-.72.82-1.25.82-.34,0-.59-.11-.67-.4l-.58-2.03h-3.49l-.58,2.03c-.08.29-.34.4-.67.4-.53,0-1.25-.34-1.25-.82ZM70.18,133.73l-1.33-4.68-1.33,4.68h2.66Z"/>
        <path class="cls-3" d="M74.91,134.72v-1.22c0-1.76.99-3.13,3.3-3.13,1.43,0,2.44.59,2.44,1.19,0,.37-.31.96-.78.96-.34,0-.61-.43-1.51-.43-1.04,0-1.48.52-1.48,1.4v1.22c0,.89.44,1.4,1.49,1.4.92,0,1.14-.46,1.53-.46.53,0,.84.55.84.93,0,.61-1.08,1.25-2.52,1.25-2.3,0-3.31-1.34-3.31-3.13Z"/>
        <path class="cls-3" d="M88.65,133.35v3.74c0,.35-.41.63-.96.63-.5,0-.89-.27-.89-.63v-.44c-.55.63-1.27,1.21-2.32,1.21s-1.98-.64-1.98-2.03c0-1.76,1.45-2.24,3.56-2.24h.63v-.2c0-.66-.34-1.4-1.34-1.4-1.18,0-1.37.47-1.74.47-.44,0-.67-.53-.67-.98,0-.63,1.36-1.1,2.44-1.1,2.38,0,3.28,1.43,3.28,2.98ZM86.68,134.6h-.23c-1.02,0-1.98.11-1.98.96,0,.56.35.82.81.82.63,0,1.4-.72,1.4-1.46v-.32Z"/>
        <path class="cls-3" d="M97.65,126.85v10.24c0,.31-.41.63-.98.63-.49,0-.89-.32-.89-.63v-.44c-.31.63-1.14,1.21-2.12,1.21-1.42,0-2.67-1.49-2.67-3.13v-1.25c0-1.69,1.22-3.1,2.72-3.1.95,0,1.63.56,1.97,1.16v-4.68c0-.37.44-.61.99-.61s.98.24.98.61ZM92.97,134.72c0,.7.61,1.4,1.33,1.4.78,0,1.39-.81,1.39-1.13v-1.53c0-.85-.72-1.37-1.37-1.37-.75,0-1.34.69-1.34,1.37v1.25Z"/>
        <path class="cls-3" d="M106.55,133.24c0,1.3-.73,1.36-1.42,1.36h-3.1v.23c0,.88.72,1.46,1.79,1.46,1.01,0,1.42-.58,1.88-.58s.75.56.75.87c0,.52-1.05,1.27-2.69,1.27-2.17,0-3.69-1.25-3.69-3.13v-1.3c0-1.65,1.48-3.05,3.34-3.05,1.68,0,3.14,1.17,3.14,2.87ZM104.26,133.44c.32,0,.44-.08.44-.41,0-.72-.61-1.21-1.34-1.21-.69,0-1.33.46-1.33,1.19v.43h2.23Z"/>
        <path class="cls-3" d="M113.28,133.47c0-.85-.61-1.37-1.25-1.37-.59,0-1.19.47-1.19,1.37v3.62c0,.31-.46.63-.99.63-.58,0-.98-.32-.98-.63v-6.01c0-.37.4-.61.98-.61.47,0,.87.24.87.61v.46c.34-.6,1.01-1.16,2.01-1.16.87,0,1.59.63,1.91,1.53.53-1.04,1.42-1.53,2.3-1.53,1.39,0,2.72,1.11,2.72,3.1v3.62c0,.31-.46.63-.99.63s-.98-.32-.98-.63v-3.62c0-.92-.63-1.39-1.24-1.39s-1.21.49-1.21,1.37v3.65c0,.43-.5.61-.99.61-.46,0-.98-.18-.98-.61v-3.63Z"/>
        <path class="cls-3" d="M121.55,131.56c-.03-.08-.06-.17-.06-.26,0-.52.81-.95,1.31-.95.26,0,.49.09.56.34l1.83,4.56,1.48-4.56c.08-.24.31-.34.52-.34.47,0,1.34.43,1.34.98,0,.06-.02.15-.05.23l-2.23,5.69c-.72,1.83-1.14,3.83-3.88,3.83-.5,0-.9-.11-.9-.84,0-.44.14-.82.5-.82.67,0,2.08-.41,2.18-2.24l-2.62-5.62Z"/>
      </g>
      <g>
        <g>
          <path class="cls-1" d="M98.92,26.83c-.96,0-1.74.78-1.74,1.74v4.9c0,.96.78,1.74,1.74,1.74s1.74-.78,1.74-1.74v-4.9c0-.96-.78-1.74-1.74-1.74Z"/>
          <path class="cls-1" d="M92.68,26.83c-.96,0-1.74.78-1.74,1.74v4.9c0,.96.78,1.74,1.74,1.74s1.74-.78,1.74-1.74v-4.9c0-.96-.78-1.74-1.74-1.74Z"/>
          <path class="cls-1" d="M96.31,0l-32.23,9.51v42.43l32.23,18.6,32.23-18.6V9.51L96.31,0ZM100.92,14.84l.51-1.34c.34-.9,1.36-1.34,2.25-1,.9.34,1.35,1.35,1,2.25l-.51,1.34c-.27.69-.93,1.12-1.63,1.12-.21,0-.42-.04-.62-.12-.9-.34-1.35-1.35-1-2.25ZM87.92,12.92c.88-.4,1.91,0,2.3.88l.59,1.31c.39.88,0,1.91-.88,2.3-.23.1-.47.15-.71.15-.67,0-1.3-.38-1.59-1.03l-.59-1.31c-.39-.88,0-1.91.88-2.3ZM77.08,24.36c.35-.9,1.36-1.34,2.25-1l1.34.51c.9.34,1.35,1.35,1.01,2.25-.27.69-.93,1.12-1.63,1.12-.21,0-.42-.04-.62-.12l-1.34-.51c-.9-.34-1.35-1.35-1-2.25ZM81.12,40.41l-1.31.59c-.23.1-.47.15-.71.15-.67,0-1.3-.38-1.59-1.03-.39-.88,0-1.91.88-2.3l1.31-.59c.88-.4,1.91,0,2.3.88.39.88,0,1.91-.88,2.3ZM95.8,54.03c-2.56,0-4.64-2.08-4.64-4.64h9.27c0,2.56-2.08,4.64-4.64,4.64ZM103.36,47.91h-15.13v-5.19h15.13v5.19ZM104.9,40.49l-.51.51h-17.18l-.51-.51c-5.02-5.02-5.02-13.18,0-18.2,4.86-4.86,13.34-4.86,18.2,0,2.43,2.43,3.77,5.66,3.77,9.1s-1.34,6.67-3.77,9.1ZM111.51,23.04l1.31-.59c.88-.39,1.91,0,2.3.88.39.88,0,1.91-.88,2.3l-1.31.59c-.23.1-.47.15-.71.15-.67,0-1.3-.38-1.59-1.03-.39-.88,0-1.91.88-2.3ZM115.55,39.09c-.27.69-.93,1.12-1.63,1.12-.21,0-.42-.04-.62-.12l-1.34-.51c-.9-.34-1.35-1.35-1-2.25.34-.9,1.36-1.35,2.25-1l1.34.51c.9.34,1.35,1.35,1,2.25Z"/>
        </g>
        <g>
          <path class="cls-2" d="M86.7,40.49c-5.02-5.02-5.02-13.18,0-18.2,2.56-2.56,6.11-3.73,9.62-3.6V0l-32.23,9.51v42.43l32.23,18.6v-16.56c-.17.02-.34.05-.51.05-2.56,0-4.64-2.08-4.64-4.64h5.15v-1.48h-8.08v-5.19h8.08v-1.72h-9.1l-.51-.51ZM87.92,12.92c.88-.4,1.91,0,2.3.88l.59,1.31c.39.88,0,1.91-.88,2.3-.23.1-.47.15-.71.15-.67,0-1.3-.38-1.59-1.03l-.59-1.31c-.39-.88,0-1.91.88-2.3ZM77.08,24.36c.35-.9,1.36-1.34,2.25-1l1.34.51c.9.34,1.35,1.35,1,2.25-.27.69-.93,1.12-1.63,1.12-.21,0-.42-.04-.62-.12l-1.34-.51c-.9-.34-1.35-1.35-1-2.25ZM81.12,40.41l-1.31.59c-.23.1-.47.15-.71.15-.67,0-1.3-.38-1.59-1.03-.39-.88,0-1.91.88-2.3l1.31-.59c.88-.4,1.91,0,2.3.88.39.88,0,1.91-.88,2.3Z"/>
          <path class="cls-2" d="M92.68,26.83c-.96,0-1.74.78-1.74,1.74v4.9c0,.96.78,1.74,1.74,1.74s1.74-.78,1.74-1.74v-4.9c0-.96-.78-1.74-1.74-1.74Z"/>
        </g>
      </g>
    </g>
  </g>
</svg>