<?xml version="1.0" encoding="UTF-8"?>
<svg id="Vrstva_2" xmlns="http://www.w3.org/2000/svg" viewBox="0 0 288.54 90.22">
  <defs>
    <style>
      .cls-1 {
        fill: #1d1d1b;
      }
    </style>
  </defs>
  <g id="Elementy">
    <g>
      <path class="cls-1" d="M103.08,38.79c0,.85,1.01,1.29,2.04,1.29s2.04-.44,2.04-1.29v-18h4.59c.82,0,1.29-.88,1.29-1.85,0-.88-.41-1.82-1.29-1.82h-13.29c-.88,0-1.29.94-1.29,1.82,0,1.01.47,1.85,1.29,1.85h4.62v18Z"/>
      <path class="cls-1" d="M128.41,38.79v-7.45c0-3.49-2.51-6.38-5.4-6.38-1.98,0-3.39,1.16-3.96,2.39v-9.65c0-.75-.94-1.26-2.04-1.26-1.19,0-2.01.5-2.01,1.26v21.08c0,.63.82,1.29,2.01,1.29,1.1,0,2.04-.66,2.04-1.29v-7.45c0-1.76,1.29-2.83,2.58-2.83,1.48,0,2.73,1.41,2.73,2.83v7.45c0,.85,1.07,1.29,2.01,1.29,1.01,0,2.04-.44,2.04-1.29Z"/>
      <path class="cls-1" d="M133.44,17.86c-1.26,0-2.23.91-2.23,1.98s.97,1.98,2.23,1.98,2.2-.94,2.2-1.98-.97-1.98-2.2-1.98Z"/>
      <path class="cls-1" d="M133.44,25.15c-1.16,0-2.01.5-2.01,1.26v12.38c0,.63.85,1.29,2.01,1.29s2.04-.66,2.04-1.29v-12.38c0-.75-.91-1.26-2.04-1.26Z"/>
      <path class="cls-1" d="M147.99,31.34v7.45c0,.85,1.07,1.29,2.01,1.29,1.01,0,2.04-.44,2.04-1.29v-7.45c0-3.49-2.51-6.38-5.4-6.38-2.1,0-3.61,1.16-4.21,2.39v-.94c0-.75-.82-1.26-1.79-1.26-1.19,0-2.01.5-2.01,1.26v12.38c0,.63.82,1.29,2.01,1.29,1.1,0,2.04-.66,2.04-1.29v-7.45c0-1.76,1.29-2.83,2.58-2.83,1.51,0,2.73,1.41,2.73,2.83Z"/>
      <path class="cls-1" d="M163.79,31.06l3.71-3.36c.22-.22.35-.47.35-.75,0-.91-1.1-1.95-1.98-1.95-.31,0-.6.13-.82.31l-5.91,5.56v-13.17c0-.75-.94-1.26-2.07-1.26s-1.98.5-1.98,1.26v21.08c0,.63.82,1.29,1.98,1.29s2.07-.66,2.07-1.29v-3.46l1.95-1.79,4.24,6.25c.25.35.6.53,1.01.53.97,0,2.29-1.07,2.29-2.01,0-.22-.06-.44-.22-.66l-4.62-6.6Z"/>
      <path class="cls-1" d="M187.96,16.45c-1.13,0-2.04.5-2.04,1.26v9.65c-.69-1.23-2.11-2.39-4.05-2.39-3.08,0-5.59,2.89-5.59,6.38v2.58c0,3.36,2.58,6.44,5.5,6.44,2.01,0,3.74-1.19,4.37-2.48v.91c0,.63.82,1.29,1.82,1.29,1.16,0,2.01-.66,2.01-1.29v-21.08c0-.75-.85-1.26-2.01-1.26ZM185.91,34.48c0,.66-1.26,2.32-2.86,2.32-1.48,0-2.73-1.45-2.73-2.89v-2.58c0-1.41,1.23-2.83,2.76-2.83,1.35,0,2.83,1.07,2.83,2.83v3.14Z"/>
      <path class="cls-1" d="M195.15,17.86c-1.26,0-2.23.91-2.23,1.98s.97,1.98,2.23,1.98,2.2-.94,2.2-1.98-.97-1.98-2.2-1.98Z"/>
      <path class="cls-1" d="M195.15,25.15c-1.16,0-2.01.5-2.01,1.26v12.38c0,.63.85,1.29,2.01,1.29s2.04-.66,2.04-1.29v-12.38c0-.75-.91-1.26-2.04-1.26Z"/>
      <path class="cls-1" d="M206.75,19.87h1.01c1.04,0,1.54-.85,1.54-1.73s-.5-1.7-1.54-1.7h-1.85c-3.02,0-5.53,2.64-5.53,6.16v16.21c0,.75.85,1.26,1.98,1.26s2.07-.5,2.07-1.26v-10.71h3.83c.66,0,1.04-.72,1.04-1.48s-.38-1.48-1.04-1.48h-3.83v-2.98c0-1.41.97-2.29,2.32-2.29Z"/>
      <path class="cls-1" d="M217.43,19.87h1.01c1.04,0,1.54-.85,1.54-1.73s-.5-1.7-1.54-1.7h-1.85c-3.02,0-5.53,2.64-5.53,6.16v16.21c0,.75.85,1.26,1.98,1.26s2.07-.5,2.07-1.26v-10.71h3.83c.66,0,1.04-.72,1.04-1.48s-.38-1.48-1.04-1.48h-3.83v-2.98c0-1.41.97-2.29,2.32-2.29Z"/>
      <path class="cls-1" d="M231.26,33.67c1.41,0,2.92-.13,2.92-2.8,0-3.49-3.02-5.91-6.47-5.91-3.83,0-6.88,2.89-6.88,6.28v2.67c0,3.86,3.14,6.44,7.6,6.44,3.36,0,5.53-1.54,5.53-2.61,0-.63-.6-1.79-1.54-1.79s-1.79,1.19-3.86,1.19c-2.2,0-3.68-1.19-3.68-3.02v-.47h6.38ZM224.88,30.4c0-1.51,1.32-2.45,2.73-2.45,1.51,0,2.77,1.01,2.77,2.48,0,.69-.25.85-.91.85h-4.59v-.88Z"/>
      <path class="cls-1" d="M245.24,24.96h-.97c-1.73,0-3.24,1.38-3.86,2.73v-1.29c0-.75-.82-1.26-1.82-1.26-1.16,0-1.98.5-1.98,1.26v12.38c0,.63.82,1.29,1.98,1.29s2.07-.66,2.07-1.29v-5.62c0-2.86,1.79-4.65,3.61-4.65h.97c.75,0,1.48-.82,1.48-1.79s-.72-1.76-1.48-1.76Z"/>
      <path class="cls-1" d="M258,33.67c1.41,0,2.92-.13,2.92-2.8,0-3.49-3.02-5.91-6.47-5.91-3.83,0-6.88,2.89-6.88,6.28v2.67c0,3.86,3.14,6.44,7.6,6.44,3.36,0,5.53-1.54,5.53-2.61,0-.63-.6-1.79-1.54-1.79s-1.79,1.19-3.86,1.19c-2.2,0-3.68-1.19-3.68-3.02v-.47h6.38ZM251.62,30.4c0-1.51,1.32-2.45,2.73-2.45,1.51,0,2.76,1.01,2.76,2.48,0,.69-.25.85-.91.85h-4.59v-.88Z"/>
      <path class="cls-1" d="M271.35,24.96c-2.1,0-3.61,1.16-4.21,2.39v-.94c0-.75-.82-1.26-1.79-1.26-1.19,0-2.01.5-2.01,1.26v12.38c0,.63.82,1.29,2.01,1.29,1.1,0,2.04-.66,2.04-1.29v-7.45c0-1.76,1.29-2.83,2.58-2.83,1.51,0,2.73,1.41,2.73,2.83v7.45c0,.85,1.07,1.29,2.01,1.29,1.01,0,2.04-.44,2.04-1.29v-7.45c0-3.49-2.51-6.38-5.4-6.38Z"/>
      <path class="cls-1" d="M286.78,36.65h-1.23c-1.32,0-1.76-.44-1.76-1.67v-6.88h3.71c.66,0,1.04-.72,1.04-1.48s-.38-1.48-1.04-1.48h-3.71v-5.4c0-.75-1.01-1.26-2.04-1.26-.94,0-2.01.5-2.01,1.26v15.24c0,3.55,2.04,5.09,5.81,5.09h1.23c1.16,0,1.73-.85,1.73-1.73s-.57-1.7-1.73-1.7Z"/>
      <path class="cls-1" d="M106.19,48.11c-.14-.46-.71-.67-1.29-.67s-1.13.21-1.27.67l-2.96,9.64c-.02.06-.03.12-.03.15,0,.49.72.83,1.26.83.34,0,.6-.11.67-.4l.58-2.04h3.51l.58,2.04c.08.29.34.4.67.4.54,0,1.26-.35,1.26-.83,0-.05-.02-.09-.03-.15l-2.96-9.64ZM103.57,54.73l1.33-4.71,1.33,4.71h-2.67Z"/>
      <path class="cls-1" d="M116.01,56.68c-.38,0-.61.46-1.53.46-1.06,0-1.5-.52-1.5-1.41v-1.23c0-.89.44-1.41,1.49-1.41.9,0,1.18.43,1.52.43.48,0,.78-.6.78-.97,0-.6-1.01-1.2-2.45-1.2-2.32,0-3.31,1.38-3.31,3.14v1.23c0,1.79,1.01,3.14,3.33,3.14,1.44,0,2.53-.64,2.53-1.26,0-.38-.31-.94-.84-.94Z"/>
      <path class="cls-1" d="M121.5,51.36c-1.09,0-2.45.47-2.45,1.1,0,.44.23.98.67.98.37,0,.57-.47,1.75-.47,1.01,0,1.35.75,1.35,1.41v.2h-.63c-2.12,0-3.57.49-3.57,2.25,0,1.4.9,2.04,1.99,2.04s1.78-.58,2.33-1.21v.44c0,.35.38.63.89.63.55,0,.97-.28.97-.63v-3.76c0-1.55-.9-2.99-3.3-2.99ZM122.82,55.93c0,.75-.78,1.47-1.41,1.47-.46,0-.81-.26-.81-.83,0-.86.97-.97,1.99-.97h.23v.32Z"/>
      <path class="cls-1" d="M132.86,47.2c-.55,0-1,.25-1,.61v4.71c-.34-.6-1.03-1.17-1.98-1.17-1.5,0-2.73,1.41-2.73,3.11v1.26c0,1.64,1.26,3.14,2.68,3.14.98,0,1.82-.58,2.13-1.21v.44c0,.31.4.63.89.63.57,0,.98-.32.98-.63v-10.29c0-.37-.41-.61-.98-.61ZM131.87,56c0,.32-.61,1.13-1.4,1.13-.72,0-1.33-.71-1.33-1.41v-1.26c0-.69.6-1.38,1.35-1.38.66,0,1.38.52,1.38,1.38v1.53Z"/>
      <path class="cls-1" d="M141.36,55.6c.69,0,1.43-.06,1.43-1.36,0-1.7-1.47-2.88-3.16-2.88-1.87,0-3.36,1.41-3.36,3.07v1.3c0,1.89,1.53,3.14,3.71,3.14,1.64,0,2.7-.75,2.7-1.27,0-.31-.29-.87-.75-.87s-.87.58-1.89.58c-1.07,0-1.79-.58-1.79-1.47v-.23h3.11ZM138.24,54.01c0-.74.64-1.2,1.33-1.2.74,0,1.35.49,1.35,1.21,0,.34-.12.41-.44.41h-2.24v-.43Z"/>
      <path class="cls-1" d="M153.23,51.36c-.89,0-1.78.49-2.32,1.53-.32-.9-1.04-1.53-1.92-1.53-1.01,0-1.69.57-2.02,1.17v-.46c0-.37-.4-.61-.87-.61-.58,0-.98.25-.98.61v6.04c0,.31.4.63.98.63.54,0,1-.32,1-.63v-3.63c0-.9.6-1.38,1.2-1.38.64,0,1.26.52,1.26,1.38v3.65c0,.43.52.61.98.61.49,0,1-.18,1-.61v-3.66c0-.89.6-1.38,1.21-1.38s1.24.48,1.24,1.39v3.63c0,.31.46.63.98.63s1-.32,1-.63v-3.63c0-1.99-1.33-3.11-2.73-3.11Z"/>
      <path class="cls-1" d="M163.53,51.34c-.21,0-.44.09-.52.34l-1.49,4.58-1.84-4.58c-.08-.25-.31-.34-.57-.34-.51,0-1.32.43-1.32.95,0,.09.03.18.06.26l2.64,5.64c-.11,1.84-1.52,2.25-2.19,2.25-.37,0-.51.38-.51.83,0,.74.4.84.9.84,2.74,0,3.17-2.01,3.89-3.85l2.24-5.72c.03-.08.05-.17.05-.23,0-.55-.87-.98-1.35-.98Z"/>
      <path class="cls-1" d="M44.56,45.04c1.23,0,2.23-1,2.23-2.23v-6.26c0-1.23-1-2.23-2.23-2.23s-2.23,1-2.23,2.23v6.26c0,1.23,1,2.23,2.23,2.23Z"/>
      <path class="cls-1" d="M0,12.16v54.26l41.22,23.79,41.22-23.79V12.16L41.22,0,0,12.16ZM32.58,16.66c.08.05.16.12.24.18.03.03.07.05.1.08.21.2.39.44.51.72l.75,1.68c.5,1.12,0,2.44-1.13,2.94-.29.13-.6.19-.91.19-.85,0-1.67-.49-2.04-1.32l-.75-1.68c-.5-1.12,0-2.44,1.13-2.94.7-.32,1.48-.24,2.09.14ZM16.62,31.15c.33-.86,1.14-1.4,2.01-1.43.29-.01.58.04.87.14l1.72.66c1.15.44,1.73,1.73,1.29,2.88-.34.89-1.18,1.43-2.08,1.43-.27,0-.54-.05-.8-.15l-1.72-.66c-1.01-.38-1.57-1.42-1.4-2.44.02-.15.06-.29.12-.44ZM20.11,52.43c-.29.13-.6.19-.91.19-.21,0-.42-.03-.63-.09-.61-.18-1.13-.61-1.41-1.23-.5-1.12,0-2.44,1.13-2.94l1.68-.75c.28-.13.57-.19.86-.2.07,0,.13.01.2.02.08,0,.15,0,.23.02.7.12,1.34.59,1.65,1.29.5,1.12,0,2.44-1.13,2.94l-1.68.75ZM41.22,69.07v-.03c-.22.02-.43.07-.66.07-3.28,0-5.93-2.66-5.93-5.93h11.86c0,3.05-2.31,5.56-5.27,5.89ZM50.24,61.28h-19.36v-6.64h19.36v6.64ZM65.82,50c-.34.89-1.18,1.43-2.08,1.43-.27,0-.54-.05-.8-.15l-1.72-.66c-1.15-.44-1.73-1.73-1.28-2.88.44-1.15,1.74-1.72,2.88-1.28l1.72.66c1.15.44,1.73,1.73,1.28,2.88ZM60.65,29.47l1.68-.75c1.12-.5,2.44,0,2.94,1.13.5,1.12,0,2.44-1.13,2.94l-1.68.75c-.29.13-.6.19-.91.19-.85,0-1.67-.49-2.04-1.32-.5-1.12,0-2.44,1.13-2.94ZM47.11,18.98l.66-1.72c.44-1.15,1.74-1.72,2.88-1.28,1.15.44,1.73,1.73,1.28,2.88l-.66,1.72c-.34.89-1.18,1.43-2.08,1.43-.27,0-.54-.05-.8-.15-1.15-.44-1.73-1.73-1.28-2.88ZM52.2,28.5c3.11,3.11,4.82,7.24,4.82,11.64s-1.71,8.53-4.82,11.64l-.65.65h-21.97l-.65-.65c-6.42-6.42-6.42-16.86,0-23.28.4-.4.83-.78,1.26-1.13.07-.06.14-.1.21-.16.38-.29.77-.58,1.18-.83.03-.02.05-.03.08-.05,2.85-1.77,6.22-2.57,9.56-2.44v-.03c4.04.15,8.03,1.69,10.98,4.64Z"/>
      <path class="cls-1" d="M37.44,34.49c-.27-.11-.56-.18-.87-.18-1.23,0-2.23,1-2.23,2.23v6.26c0,1.23,1,2.23,2.23,2.23h0c1.23,0,2.23-1,2.23-2.23v-6.26c0-.92-.56-1.72-1.36-2.05Z"/>
    </g>
  </g>
</svg>