<?xml version="1.0" encoding="UTF-8"?>
<svg id="Vrstva_2" xmlns="http://www.w3.org/2000/svg" viewBox="0 0 193 141.08">
  <defs>
    <style>
      .cls-1 {
        fill: #1d1d1b;
      }
    </style>
  </defs>
  <g id="Elementy">
    <g>
      <path class="cls-1" d="M14.71,93.11H1.3c-.89,0-1.3.95-1.3,1.84,0,1.01.48,1.87,1.3,1.87h4.66v18.16c0,.86,1.01,1.3,2.06,1.3s2.06-.44,2.06-1.3v-18.16h4.63c.82,0,1.3-.89,1.3-1.87,0-.89-.41-1.84-1.3-1.84Z"/>
      <path class="cls-1" d="M26.05,101.03c-2,0-3.42,1.17-3.99,2.41v-9.73c0-.76-.95-1.27-2.06-1.27-1.2,0-2.03.51-2.03,1.27v21.27c0,.63.82,1.3,2.03,1.3,1.11,0,2.06-.67,2.06-1.3v-7.51c0-1.77,1.3-2.85,2.6-2.85,1.49,0,2.76,1.43,2.76,2.85v7.51c0,.86,1.08,1.3,2.03,1.3,1.01,0,2.06-.44,2.06-1.3v-7.51c0-3.52-2.54-6.43-5.45-6.43Z"/>
      <path class="cls-1" d="M36.57,93.87c-1.27,0-2.25.92-2.25,2s.98,2,2.25,2,2.22-.95,2.22-2-.98-2-2.22-2Z"/>
      <path class="cls-1" d="M36.57,101.22c-1.17,0-2.03.51-2.03,1.27v12.49c0,.63.86,1.3,2.03,1.3s2.06-.67,2.06-1.3v-12.49c0-.76-.92-1.27-2.06-1.27Z"/>
      <path class="cls-1" d="M49.88,101.03c-2.12,0-3.64,1.17-4.25,2.41v-.95c0-.76-.82-1.27-1.81-1.27-1.2,0-2.03.51-2.03,1.27v12.49c0,.63.82,1.3,2.03,1.3,1.11,0,2.06-.67,2.06-1.3v-7.51c0-1.77,1.3-2.85,2.6-2.85,1.52,0,2.76,1.43,2.76,2.85v7.51c0,.86,1.08,1.3,2.03,1.3,1.01,0,2.06-.44,2.06-1.3v-7.51c0-3.52-2.54-6.43-5.45-6.43Z"/>
      <path class="cls-1" d="M69.75,116.53c.98,0,2.31-1.08,2.31-2.03,0-.22-.06-.44-.22-.67l-4.66-6.66,3.74-3.39c.22-.22.35-.48.35-.76,0-.92-1.11-1.96-2-1.96-.32,0-.6.13-.82.32l-5.96,5.61v-13.28c0-.76-.95-1.27-2.09-1.27s-2,.51-2,1.27v21.27c0,.63.82,1.3,2,1.3s2.09-.67,2.09-1.3v-3.49l1.97-1.81,4.28,6.31c.25.35.6.54,1.01.54Z"/>
      <path class="cls-1" d="M93.59,114.98v-21.27c0-.76-.86-1.27-2.03-1.27s-2.06.51-2.06,1.27v9.73c-.7-1.24-2.12-2.41-4.09-2.41-3.11,0-5.64,2.92-5.64,6.43v2.6c0,3.39,2.6,6.5,5.55,6.5,2.03,0,3.77-1.2,4.41-2.5v.92c0,.63.82,1.3,1.84,1.3,1.17,0,2.03-.67,2.03-1.3ZM89.5,110.64c0,.67-1.27,2.35-2.88,2.35-1.49,0-2.76-1.46-2.76-2.92v-2.6c0-1.43,1.24-2.85,2.79-2.85,1.36,0,2.85,1.08,2.85,2.85v3.17Z"/>
      <path class="cls-1" d="M96.56,95.87c0,1.05.98,2,2.25,2s2.22-.95,2.22-2-.98-2-2.22-2-2.25.92-2.25,2Z"/>
      <path class="cls-1" d="M100.87,114.98v-12.49c0-.76-.92-1.27-2.06-1.27s-2.03.51-2.03,1.27v12.49c0,.63.86,1.3,2.03,1.3s2.06-.67,2.06-1.3Z"/>
      <path class="cls-1" d="M113.08,102.71c0-.73-.38-1.49-1.05-1.49h-3.87v-3.01c0-1.43.98-2.31,2.35-2.31h1.01c1.05,0,1.55-.86,1.55-1.74s-.51-1.71-1.55-1.71h-1.87c-3.04,0-5.58,2.66-5.58,6.21v16.35c0,.76.86,1.27,2,1.27s2.09-.51,2.09-1.27v-10.81h3.87c.67,0,1.05-.73,1.05-1.49Z"/>
      <path class="cls-1" d="M121.28,95.9h1.01c1.05,0,1.55-.86,1.55-1.74s-.51-1.71-1.55-1.71h-1.87c-3.04,0-5.58,2.66-5.58,6.21v16.35c0,.76.86,1.27,2,1.27s2.09-.51,2.09-1.27v-10.81h3.87c.67,0,1.05-.73,1.05-1.49s-.38-1.49-1.05-1.49h-3.87v-3.01c0-1.43.98-2.31,2.35-2.31Z"/>
      <path class="cls-1" d="M135.23,109.81c1.43,0,2.95-.13,2.95-2.82,0-3.52-3.04-5.96-6.53-5.96-3.87,0-6.94,2.92-6.94,6.34v2.69c0,3.9,3.17,6.5,7.67,6.5,3.39,0,5.58-1.55,5.58-2.63,0-.63-.6-1.81-1.55-1.81s-1.81,1.2-3.9,1.2c-2.22,0-3.71-1.2-3.71-3.04v-.48h6.43ZM128.79,106.52c0-1.52,1.33-2.47,2.76-2.47,1.52,0,2.79,1.01,2.79,2.5,0,.7-.25.86-.92.86h-4.63v-.89Z"/>
      <path class="cls-1" d="M149.33,101.03h-.98c-1.74,0-3.26,1.39-3.9,2.76v-1.3c0-.76-.82-1.27-1.84-1.27-1.17,0-2,.51-2,1.27v12.49c0,.63.82,1.3,2,1.3s2.09-.67,2.09-1.3v-5.67c0-2.88,1.81-4.69,3.64-4.69h.98c.76,0,1.49-.82,1.49-1.81s-.73-1.77-1.49-1.77Z"/>
      <path class="cls-1" d="M162.2,109.81c1.43,0,2.95-.13,2.95-2.82,0-3.52-3.04-5.96-6.53-5.96-3.87,0-6.94,2.92-6.94,6.34v2.69c0,3.9,3.17,6.5,7.67,6.5,3.39,0,5.58-1.55,5.58-2.63,0-.63-.6-1.81-1.55-1.81s-1.81,1.2-3.9,1.2c-2.22,0-3.71-1.2-3.71-3.04v-.48h6.43ZM155.76,106.52c0-1.52,1.33-2.47,2.76-2.47,1.52,0,2.79,1.01,2.79,2.5,0,.7-.25.86-.92.86h-4.63v-.89Z"/>
      <path class="cls-1" d="M175.67,101.03c-2.12,0-3.64,1.17-4.25,2.41v-.95c0-.76-.82-1.27-1.81-1.27-1.2,0-2.03.51-2.03,1.27v12.49c0,.63.82,1.3,2.03,1.3,1.11,0,2.06-.67,2.06-1.3v-7.51c0-1.77,1.3-2.85,2.6-2.85,1.52,0,2.76,1.43,2.76,2.85v7.51c0,.86,1.08,1.3,2.03,1.3,1.01,0,2.06-.44,2.06-1.3v-7.51c0-3.52-2.54-6.43-5.45-6.43Z"/>
      <path class="cls-1" d="M191.23,112.82h-1.24c-1.33,0-1.77-.44-1.77-1.68v-6.94h3.74c.67,0,1.05-.73,1.05-1.49s-.38-1.49-1.05-1.49h-3.74v-5.45c0-.76-1.01-1.27-2.06-1.27-.95,0-2.03.51-2.03,1.27v15.37c0,3.58,2.06,5.13,5.86,5.13h1.24c1.17,0,1.74-.86,1.74-1.74s-.57-1.71-1.74-1.71Z"/>
      <path class="cls-1" d="M70.13,127.14c-.14-.46-.7-.67-1.28-.67s-1.13.21-1.27.67l-2.95,9.6c-.02.06-.03.12-.03.15,0,.49.72.82,1.25.82.34,0,.6-.11.67-.4l.58-2.03h3.49l.58,2.03c.08.29.34.4.67.4.53,0,1.25-.35,1.25-.82,0-.05-.02-.09-.03-.15l-2.95-9.6ZM67.53,133.73l1.33-4.68,1.33,4.68h-2.66Z"/>
      <path class="cls-1" d="M79.9,135.67c-.38,0-.61.46-1.53.46-1.05,0-1.49-.52-1.49-1.4v-1.22c0-.89.44-1.4,1.48-1.4.9,0,1.17.43,1.51.43.47,0,.78-.6.78-.96,0-.59-1.01-1.19-2.44-1.19-2.3,0-3.3,1.37-3.3,3.13v1.22c0,1.79,1.01,3.13,3.31,3.13,1.43,0,2.52-.64,2.52-1.25,0-.38-.31-.93-.84-.93Z"/>
      <path class="cls-1" d="M85.37,130.37c-1.08,0-2.44.47-2.44,1.1,0,.44.23.98.67.98.37,0,.56-.47,1.74-.47,1.01,0,1.34.75,1.34,1.4v.2h-.63c-2.11,0-3.56.49-3.56,2.24,0,1.39.9,2.03,1.98,2.03s1.77-.58,2.32-1.21v.44c0,.35.38.63.89.63.55,0,.96-.27.96-.63v-3.74c0-1.54-.9-2.98-3.28-2.98ZM86.68,134.92c0,.75-.78,1.46-1.4,1.46-.46,0-.81-.26-.81-.82,0-.85.96-.96,1.98-.96h.23v.32Z"/>
      <path class="cls-1" d="M96.68,126.24c-.55,0-.99.24-.99.61v4.68c-.34-.6-1.02-1.16-1.97-1.16-1.49,0-2.72,1.4-2.72,3.1v1.25c0,1.63,1.25,3.13,2.67,3.13.98,0,1.82-.58,2.12-1.21v.44c0,.31.4.63.89.63.56,0,.98-.32.98-.63v-10.24c0-.37-.41-.61-.98-.61ZM95.68,134.99c0,.32-.61,1.13-1.39,1.13-.72,0-1.33-.7-1.33-1.4v-1.25c0-.69.6-1.37,1.34-1.37.66,0,1.37.52,1.37,1.37v1.53Z"/>
      <path class="cls-1" d="M105.13,134.6c.69,0,1.42-.06,1.42-1.36,0-1.69-1.46-2.87-3.14-2.87-1.86,0-3.34,1.4-3.34,3.05v1.3c0,1.88,1.53,3.13,3.69,3.13,1.63,0,2.69-.75,2.69-1.27,0-.31-.29-.87-.75-.87s-.87.58-1.88.58c-1.07,0-1.79-.58-1.79-1.46v-.23h3.1ZM102.03,133.01c0-.73.64-1.19,1.33-1.19.73,0,1.34.49,1.34,1.21,0,.34-.12.41-.44.41h-2.23v-.43Z"/>
      <path class="cls-1" d="M116.94,130.37c-.89,0-1.77.49-2.3,1.53-.32-.9-1.04-1.53-1.91-1.53-1.01,0-1.68.56-2.01,1.16v-.46c0-.37-.4-.61-.87-.61-.58,0-.98.24-.98.61v6.01c0,.31.4.63.98.63.53,0,.99-.32.99-.63v-3.62c0-.9.59-1.37,1.19-1.37.64,0,1.25.52,1.25,1.37v3.63c0,.43.52.61.98.61.49,0,.99-.18.99-.61v-3.65c0-.88.6-1.37,1.21-1.37s1.24.47,1.24,1.39v3.62c0,.31.46.63.98.63s.99-.32.99-.63v-3.62c0-1.98-1.33-3.1-2.72-3.1Z"/>
      <path class="cls-1" d="M127.2,130.36c-.21,0-.44.09-.52.34l-1.48,4.56-1.83-4.56c-.08-.24-.31-.34-.56-.34-.5,0-1.31.43-1.31.95,0,.09.03.18.06.26l2.62,5.62c-.11,1.83-1.51,2.24-2.18,2.24-.37,0-.5.38-.5.82,0,.73.4.84.9.84,2.73,0,3.16-2,3.88-3.83l2.23-5.69c.03-.08.05-.17.05-.23,0-.55-.87-.98-1.34-.98Z"/>
      <path class="cls-1" d="M98.92,35.21c.96,0,1.74-.78,1.74-1.74v-4.9c0-.96-.78-1.74-1.74-1.74s-1.74.78-1.74,1.74v4.9c0,.96.78,1.74,1.74,1.74Z"/>
      <path class="cls-1" d="M128.54,51.94V9.51L96.31,0l-32.23,9.51v42.43l32.23,18.6,32.23-18.6ZM115.55,39.09c-.27.69-.93,1.12-1.63,1.12-.21,0-.42-.04-.62-.12l-1.34-.51c-.9-.34-1.35-1.35-1-2.25.34-.9,1.36-1.35,2.25-1l1.34.51c.9.34,1.35,1.35,1,2.25ZM111.51,23.04l1.31-.59c.88-.39,1.91,0,2.3.88.39.88,0,1.91-.88,2.3l-1.31.59c-.23.1-.47.15-.71.15-.67,0-1.3-.38-1.59-1.03-.39-.88,0-1.91.88-2.3ZM100.92,14.84l.51-1.34c.34-.9,1.36-1.34,2.25-1,.9.34,1.35,1.35,1,2.25l-.51,1.34c-.27.69-.93,1.12-1.63,1.12-.21,0-.42-.04-.62-.12-.9-.34-1.35-1.35-1-2.25ZM89.62,13.07c.26.18.47.42.61.72l.59,1.31c.39.88,0,1.91-.88,2.3-.23.1-.47.15-.71.15-.67,0-1.3-.39-1.59-1.03l-.59-1.31c-.39-.88,0-1.91.88-2.3.58-.26,1.21-.17,1.69.16ZM77.08,24.36c.26-.68.89-1.09,1.57-1.12.23,0,.46.03.68.11l1.34.51c.9.34,1.35,1.35,1.01,2.25-.27.69-.93,1.12-1.63,1.12-.21,0-.42-.04-.62-.12l-1.34-.51c-.79-.3-1.23-1.11-1.1-1.91.02-.11.05-.23.09-.34ZM79.8,41c-.23.1-.47.15-.71.15-.17,0-.33-.02-.49-.07-.47-.14-.89-.48-1.1-.96-.39-.88,0-1.91.88-2.3l1.31-.59c.33-.15.68-.19,1.01-.13.55.1,1.04.46,1.29,1.01.39.88,0,1.91-.88,2.3l-1.31.59ZM86.7,40.49c-5.02-5.02-5.02-13.18,0-18.2.31-.32.65-.61.99-.88.05-.04.11-.08.17-.12.3-.23.61-.45.92-.65.02-.01.04-.02.06-.04,2.23-1.38,4.87-2.01,7.47-1.91v-.02c3.16.12,6.28,1.32,8.59,3.62,2.43,2.43,3.77,5.66,3.77,9.1s-1.34,6.67-3.77,9.1l-.51.51h-17.18l-.51-.51ZM88.23,42.72h15.13v5.19h-15.13v-5.19ZM91.16,49.4h9.27c0,2.38-1.81,4.33-4.12,4.59h0c-.17.02-.34.05-.51.05-2.56,0-4.64-2.08-4.64-4.64Z"/>
      <path class="cls-1" d="M93.66,27.13c-.28-.19-.61-.3-.98-.3-.96,0-1.74.78-1.74,1.74v4.9c0,.96.78,1.74,1.74,1.74h0c.96,0,1.74-.78,1.74-1.74v-4.9c0-.6-.3-1.13-.77-1.45Z"/>
    </g>
  </g>
</svg>