<?xml version="1.0" encoding="UTF-8"?>
<svg id="Vrstva_2" xmlns="http://www.w3.org/2000/svg" version="1.1" viewBox="0 0 288.5 90.2">
  <!-- Generator: Adobe Illustrator 29.0.0, SVG Export Plug-In . SVG Version: 2.1.0 Build 186)  -->
  <defs>
    <style>
      .st0 {
        fill: #0070bb;
      }

      .st1 {
        fill: #fff;
      }

      .st2 {
        fill: #0257a5;
      }
    </style>
  </defs>
  <g id="Elementy">
    <g>
      <g>
        <g>
          <path class="st1" d="M111.8,17.1c.9,0,1.3.9,1.3,1.8s-.5,1.9-1.3,1.9h-4.6v18c0,.8-1,1.3-2,1.3s-2-.4-2-1.3v-18h-4.6c-.8,0-1.3-.9-1.3-1.9s.4-1.8,1.3-1.8c0,0,13.3,0,13.3,0Z"/>
          <path class="st1" d="M119.1,38.8c0,.6-.9,1.3-2,1.3s-2-.7-2-1.3v-21.1c0-.8.8-1.3,2-1.3s2,.5,2,1.3v9.6c.6-1.2,2-2.4,4-2.4,2.9,0,5.4,2.9,5.4,6.4v7.5c0,.8-1,1.3-2,1.3s-2-.4-2-1.3v-7.5c0-1.4-1.3-2.8-2.7-2.8s-2.6,1.1-2.6,2.8v7.5h0Z"/>
          <path class="st1" d="M135.6,19.8c0,1-1,2-2.2,2s-2.2-.9-2.2-2,1-2,2.2-2,2.2.9,2.2,2ZM135.5,26.4v12.4c0,.6-.9,1.3-2,1.3s-2-.7-2-1.3v-12.4c0-.8.9-1.3,2-1.3s2,.5,2,1.3Z"/>
          <path class="st1" d="M142.7,38.8c0,.6-.9,1.3-2,1.3s-2-.7-2-1.3v-12.4c0-.8.8-1.3,2-1.3s1.8.5,1.8,1.3v.9c.6-1.2,2.1-2.4,4.2-2.4s5.4,2.9,5.4,6.4v7.5c0,.8-1,1.3-2,1.3s-2-.4-2-1.3v-7.5c0-1.4-1.2-2.8-2.7-2.8s-2.6,1.1-2.6,2.8v7.5h0Z"/>
          <path class="st1" d="M163.8,31.1l4.6,6.6c.2.2.2.4.2.7,0,.9-1.3,2-2.3,2s-.8-.2-1-.5l-4.2-6.2-1.9,1.8v3.5c0,.6-.9,1.3-2.1,1.3s-2-.7-2-1.3v-21.1c0-.8.8-1.3,2-1.3s2.1.5,2.1,1.3v13.2l5.9-5.6c.2-.2.5-.3.8-.3.9,0,2,1,2,2s-.1.5-.4.8l-3.7,3.4h0Z"/>
          <path class="st1" d="M190,17.7v21.1c0,.6-.9,1.3-2,1.3s-1.8-.7-1.8-1.3v-.9c-.6,1.3-2.4,2.5-4.4,2.5-2.9,0-5.5-3.1-5.5-6.4v-2.6c0-3.5,2.5-6.4,5.6-6.4s3.4,1.2,4.1,2.4v-9.6c0-.8.9-1.3,2-1.3s2,.5,2,1.3h0ZM180.3,33.9c0,1.5,1.3,2.9,2.7,2.9s2.9-1.7,2.9-2.3v-3.1c0-1.8-1.5-2.8-2.8-2.8s-2.8,1.4-2.8,2.8v2.6h0Z"/>
          <path class="st1" d="M197.4,19.8c0,1-1,2-2.2,2s-2.2-.9-2.2-2,1-2,2.2-2,2.2.9,2.2,2ZM197.2,26.4v12.4c0,.6-.9,1.3-2,1.3s-2-.7-2-1.3v-12.4c0-.8.9-1.3,2-1.3s2,.5,2,1.3Z"/>
          <path class="st1" d="M204.4,25.1h3.8c.7,0,1,.8,1,1.5s-.4,1.5-1,1.5h-3.8v10.7c0,.8-1,1.3-2.1,1.3s-2-.5-2-1.3v-16.2c0-3.5,2.5-6.2,5.5-6.2h1.9c1,0,1.5.9,1.5,1.7s-.5,1.7-1.5,1.7h-1c-1.4,0-2.3.9-2.3,2.3,0,0,0,3,0,3Z"/>
          <path class="st1" d="M215.1,25.1h3.8c.7,0,1,.8,1,1.5s-.4,1.5-1,1.5h-3.8v10.7c0,.8-1,1.3-2.1,1.3s-2-.5-2-1.3v-16.2c0-3.5,2.5-6.2,5.5-6.2h1.9c1,0,1.5.9,1.5,1.7s-.5,1.7-1.5,1.7h-1c-1.4,0-2.3.9-2.3,2.3,0,0,0,3,0,3Z"/>
          <path class="st1" d="M234.2,30.9c0,2.7-1.5,2.8-2.9,2.8h-6.4v.5c0,1.8,1.5,3,3.7,3s2.9-1.2,3.9-1.2,1.5,1.2,1.5,1.8c0,1.1-2.2,2.6-5.5,2.6s-7.6-2.6-7.6-6.4v-2.7c0-3.4,3.1-6.3,6.9-6.3s6.5,2.4,6.5,5.9h0ZM229.5,31.3c.7,0,.9-.2.9-.9,0-1.5-1.3-2.5-2.8-2.5s-2.7.9-2.7,2.5v.9h4.6Z"/>
          <path class="st1" d="M244.3,28.5c-1.8,0-3.6,1.8-3.6,4.6v5.6c0,.6-.9,1.3-2.1,1.3s-2-.7-2-1.3v-12.4c0-.8.8-1.3,2-1.3s1.8.5,1.8,1.3v1.3c.6-1.4,2.1-2.7,3.9-2.7h1c.8,0,1.5.8,1.5,1.8s-.7,1.8-1.5,1.8c0,0-1,0-1,0Z"/>
          <path class="st1" d="M260.9,30.9c0,2.7-1.5,2.8-2.9,2.8h-6.4v.5c0,1.8,1.5,3,3.7,3s2.9-1.2,3.9-1.2,1.5,1.2,1.5,1.8c0,1.1-2.2,2.6-5.5,2.6s-7.6-2.6-7.6-6.4v-2.7c0-3.4,3.1-6.3,6.9-6.3s6.5,2.4,6.5,5.9h0ZM256.2,31.3c.7,0,.9-.2.9-.9,0-1.5-1.3-2.5-2.8-2.5s-2.7.9-2.7,2.5v.9h4.6,0Z"/>
          <path class="st1" d="M267.4,38.8c0,.6-.9,1.3-2,1.3s-2-.7-2-1.3v-12.4c0-.8.8-1.3,2-1.3s1.8.5,1.8,1.3v.9c.6-1.2,2.1-2.4,4.2-2.4s5.4,2.9,5.4,6.4v7.5c0,.8-1,1.3-2,1.3s-2-.4-2-1.3v-7.5c0-1.4-1.2-2.8-2.7-2.8s-2.6,1.1-2.6,2.8v7.5h0Z"/>
          <path class="st1" d="M283.8,35c0,1.2.4,1.7,1.8,1.7h1.2c1.2,0,1.7.8,1.7,1.7s-.6,1.7-1.7,1.7h-1.2c-3.8,0-5.8-1.5-5.8-5.1v-15.2c0-.8,1.1-1.3,2-1.3s2,.5,2,1.3v5.4h3.7c.7,0,1,.8,1,1.5s-.4,1.5-1,1.5h-3.7v6.9h0Z"/>
        </g>
        <g>
          <path class="st1" d="M100.6,57.9s0,0,0-.2l3-9.6c.1-.5.7-.7,1.3-.7s1.2.2,1.3.7l3,9.6c0,0,0,.1,0,.2,0,.5-.7.8-1.3.8s-.6-.1-.7-.4l-.6-2h-3.5l-.6,2c0,.3-.3.4-.7.4-.5,0-1.3-.3-1.3-.8h0ZM106.2,54.7l-1.3-4.7-1.3,4.7h2.7,0Z"/>
          <path class="st1" d="M111,55.7v-1.2c0-1.8,1-3.1,3.3-3.1s2.4.6,2.4,1.2-.3,1-.8,1-.6-.4-1.5-.4-1.5.5-1.5,1.4v1.2c0,.9.4,1.4,1.5,1.4s1.2-.5,1.5-.5c.5,0,.8.5.8.9,0,.6-1.1,1.3-2.5,1.3-2.3,0-3.3-1.3-3.3-3.1h0Z"/>
          <path class="st1" d="M124.8,54.3v3.8c0,.3-.4.6-1,.6s-.9-.3-.9-.6v-.4c-.6.6-1.3,1.2-2.3,1.2s-2-.6-2-2,1.5-2.2,3.6-2.2h.6v-.2c0-.7-.3-1.4-1.3-1.4s-1.4.5-1.8.5-.7-.5-.7-1c0-.6,1.4-1.1,2.4-1.1,2.4,0,3.3,1.4,3.3,3h0ZM122.8,55.6h-.2c-1,0-2,.1-2,1s.3.8.8.8,1.4-.7,1.4-1.5v-.3h0Z"/>
          <path class="st1" d="M133.8,47.8v10.3c0,.3-.4.6-1,.6s-.9-.3-.9-.6v-.4c-.3.6-1.1,1.2-2.1,1.2-1.4,0-2.7-1.5-2.7-3.1v-1.3c0-1.7,1.2-3.1,2.7-3.1s1.6.6,2,1.2v-4.7c0-.4.4-.6,1-.6s1,.2,1,.6h0ZM129.1,55.7c0,.7.6,1.4,1.3,1.4s1.4-.8,1.4-1.1v-1.5c0-.9-.7-1.4-1.4-1.4s-1.4.7-1.4,1.4v1.3h0Z"/>
          <path class="st1" d="M142.8,54.2c0,1.3-.7,1.4-1.4,1.4h-3.1v.2c0,.9.7,1.5,1.8,1.5s1.4-.6,1.9-.6.8.6.8.9c0,.5-1.1,1.3-2.7,1.3s-3.7-1.3-3.7-3.1v-1.3c0-1.7,1.5-3.1,3.4-3.1s3.2,1.2,3.2,2.9h0ZM140.5,54.4c.3,0,.4,0,.4-.4,0-.7-.6-1.2-1.4-1.2s-1.3.5-1.3,1.2v.4h2.2Z"/>
          <path class="st1" d="M149.6,54.5c0-.9-.6-1.4-1.3-1.4s-1.2.5-1.2,1.4v3.6c0,.3-.5.6-1,.6s-1-.3-1-.6v-6c0-.4.4-.6,1-.6s.9.2.9.6v.5c.3-.6,1-1.2,2-1.2s1.6.6,1.9,1.5c.5-1,1.4-1.5,2.3-1.5,1.4,0,2.7,1.1,2.7,3.1v3.6c0,.3-.5.6-1,.6s-1-.3-1-.6v-3.6c0-.9-.6-1.4-1.2-1.4s-1.2.5-1.2,1.4v3.7c0,.4-.5.6-1,.6s-1-.2-1-.6v-3.7h0Z"/>
          <path class="st1" d="M157.9,52.5c0,0,0-.2,0-.3,0-.5.8-1,1.3-1s.5,0,.6.3l1.8,4.6,1.5-4.6c0-.2.3-.3.5-.3.5,0,1.4.4,1.4,1s0,.2,0,.2l-2.2,5.7c-.7,1.8-1.1,3.8-3.9,3.8s-.9-.1-.9-.8.1-.8.5-.8c.7,0,2.1-.4,2.2-2.2l-2.6-5.6h0Z"/>
        </g>
      </g>
      <g>
        <g>
          <path class="st0" d="M44.6,34.3c-1.2,0-2.2,1-2.2,2.2v6.3c0,1.2,1,2.2,2.2,2.2s2.2-1,2.2-2.2v-6.3c0-1.2-1-2.2-2.2-2.2Z"/>
          <path class="st0" d="M36.6,34.3c-1.2,0-2.2,1-2.2,2.2v6.3c0,1.2,1,2.2,2.2,2.2s2.2-1,2.2-2.2v-6.3c0-1.2-1-2.2-2.2-2.2Z"/>
          <path class="st0" d="M41.2,0L0,12.2v54.3l41.2,23.8,41.2-23.8V12.2L41.2,0ZM47.1,19l.7-1.7c.4-1.1,1.7-1.7,2.9-1.3,1.2.4,1.7,1.7,1.3,2.9l-.7,1.7c-.3.9-1.2,1.4-2.1,1.4s-.5,0-.8-.1c-1.2-.4-1.7-1.7-1.3-2.9ZM30.5,16.5c1.1-.5,2.4,0,2.9,1.1l.8,1.7c.5,1.1,0,2.4-1.1,2.9-.3.1-.6.2-.9.2-.9,0-1.7-.5-2-1.3l-.8-1.7c-.5-1.1,0-2.4,1.1-2.9h0ZM16.6,31.1c.4-1.1,1.7-1.7,2.9-1.3l1.7.7c1.1.4,1.7,1.7,1.3,2.9-.3.9-1.2,1.4-2.1,1.4s-.5,0-.8-.2l-1.7-.7c-1.1-.4-1.7-1.7-1.3-2.9h0ZM21.8,51.7l-1.7.8c-.3.1-.6.2-.9.2-.9,0-1.7-.5-2-1.3-.5-1.1,0-2.4,1.1-2.9l1.7-.8c1.1-.5,2.4,0,2.9,1.1.5,1.1,0,2.4-1.1,2.9h0ZM40.6,69.1c-3.3,0-5.9-2.7-5.9-5.9h11.9c0,3.3-2.7,5.9-5.9,5.9ZM50.2,61.3h-19.4v-6.6h19.4v6.6ZM52.2,51.8l-.7.7h-22l-.6-.7c-6.4-6.4-6.4-16.9,0-23.3,6.2-6.2,17.1-6.2,23.3,0,3.1,3.1,4.8,7.2,4.8,11.6s-1.7,8.5-4.8,11.6h0ZM60.7,29.5l1.7-.8c1.1-.5,2.4,0,2.9,1.1.5,1.1,0,2.4-1.1,2.9l-1.7.8c-.3.1-.6.2-.9.2-.8,0-1.7-.5-2-1.3-.5-1.1,0-2.4,1.1-2.9h0ZM65.8,50c-.3.9-1.2,1.4-2.1,1.4s-.5,0-.8-.2l-1.7-.7c-1.2-.4-1.7-1.7-1.3-2.9.4-1.2,1.7-1.7,2.9-1.3l1.7.7c1.2.4,1.7,1.7,1.3,2.9Z"/>
        </g>
        <g>
          <path class="st2" d="M28.9,51.8c-6.4-6.4-6.4-16.9,0-23.3,3.3-3.3,7.8-4.8,12.3-4.6V0L0,12.2v54.3l41.2,23.8v-21.2c-.2,0-.4,0-.7,0-3.3,0-5.9-2.7-5.9-5.9h6.6v-1.9h-10.3v-6.6h10.3v-2.2h-11.6l-.6-.7h0ZM30.5,16.5c1.1-.5,2.4,0,2.9,1.1l.8,1.7c.5,1.1,0,2.4-1.1,2.9-.3.1-.6.2-.9.2-.9,0-1.7-.5-2-1.3l-.8-1.7c-.5-1.1,0-2.4,1.1-2.9h0ZM16.6,31.1c.4-1.1,1.7-1.7,2.9-1.3l1.7.7c1.1.4,1.7,1.7,1.3,2.9-.3.9-1.2,1.4-2.1,1.4s-.5,0-.8-.2l-1.7-.7c-1.1-.4-1.7-1.7-1.3-2.9h0ZM21.8,51.7l-1.7.8c-.3.1-.6.2-.9.2-.9,0-1.7-.5-2-1.3-.5-1.1,0-2.4,1.1-2.9l1.7-.8c1.1-.5,2.4,0,2.9,1.1.5,1.1,0,2.4-1.1,2.9h0Z"/>
          <path class="st2" d="M36.6,34.3c-1.2,0-2.2,1-2.2,2.2v6.3c0,1.2,1,2.2,2.2,2.2s2.2-1,2.2-2.2v-6.3c0-1.2-1-2.2-2.2-2.2Z"/>
        </g>
      </g>
    </g>
  </g>
</svg>