<?xml version="1.0" encoding="UTF-8"?>
<svg id="Vrstva_2" xmlns="http://www.w3.org/2000/svg" viewBox="0 0 193 48.64">
  <defs>
    <style>
      .cls-1 {
        fill: #1d1d1b;
      }
    </style>
  </defs>
  <g id="Elementy">
    <g>
      <g>
        <path class="cls-1" d="M14.71.67c.89,0,1.3.95,1.3,1.84,0,.98-.48,1.87-1.3,1.87h-4.63v18.16c0,.86-1.05,1.3-2.06,1.3s-2.06-.44-2.06-1.3V4.37H1.3c-.82,0-1.3-.86-1.3-1.87C0,1.62.41.67,1.3.67h13.41Z"/>
        <path class="cls-1" d="M22.06,22.53c0,.63-.95,1.3-2.06,1.3-1.2,0-2.03-.67-2.03-1.3V1.27c0-.76.82-1.27,2.03-1.27,1.11,0,2.06.51,2.06,1.27v9.73c.57-1.24,2-2.41,3.99-2.41,2.92,0,5.45,2.92,5.45,6.43v7.51c0,.86-1.05,1.3-2.06,1.3-.95,0-2.03-.44-2.03-1.3v-7.51c0-1.43-1.27-2.85-2.76-2.85-1.3,0-2.6,1.08-2.6,2.85v7.51Z"/>
        <path class="cls-1" d="M38.79,3.42c0,1.05-.98,2-2.22,2s-2.25-.95-2.25-2,.98-2,2.25-2,2.22.92,2.22,2ZM38.63,10.05v12.49c0,.63-.92,1.3-2.06,1.3s-2.03-.67-2.03-1.3v-12.49c0-.76.86-1.27,2.03-1.27s2.06.51,2.06,1.27Z"/>
        <path class="cls-1" d="M45.89,22.53c0,.63-.95,1.3-2.06,1.3-1.2,0-2.03-.67-2.03-1.3v-12.49c0-.76.82-1.27,2.03-1.27.98,0,1.81.51,1.81,1.27v.95c.6-1.24,2.12-2.41,4.25-2.41,2.92,0,5.45,2.92,5.45,6.43v7.51c0,.86-1.05,1.3-2.06,1.3-.95,0-2.03-.44-2.03-1.3v-7.51c0-1.43-1.24-2.85-2.76-2.85-1.3,0-2.6,1.08-2.6,2.85v7.51Z"/>
        <path class="cls-1" d="M67.19,14.74l4.66,6.66c.16.22.22.44.22.67,0,.95-1.33,2.03-2.31,2.03-.41,0-.76-.19-1.01-.54l-4.28-6.31-1.97,1.81v3.49c0,.63-.95,1.3-2.09,1.3s-2-.67-2-1.3V1.27c0-.76.82-1.27,2-1.27s2.09.51,2.09,1.27v13.28l5.96-5.61c.22-.19.51-.32.82-.32.89,0,2,1.05,2,1.96,0,.29-.13.54-.35.76l-3.74,3.39Z"/>
        <path class="cls-1" d="M93.59,1.27v21.27c0,.63-.86,1.3-2.03,1.3-1.01,0-1.84-.67-1.84-1.3v-.92c-.63,1.3-2.38,2.5-4.41,2.5-2.95,0-5.55-3.11-5.55-6.5v-2.6c0-3.52,2.54-6.43,5.64-6.43,1.96,0,3.39,1.17,4.09,2.41V1.27c0-.76.92-1.27,2.06-1.27s2.03.51,2.03,1.27ZM83.86,17.62c0,1.46,1.27,2.92,2.76,2.92,1.62,0,2.88-1.68,2.88-2.35v-3.17c0-1.77-1.49-2.85-2.85-2.85-1.55,0-2.79,1.43-2.79,2.85v2.6Z"/>
        <path class="cls-1" d="M101.03,3.42c0,1.05-.98,2-2.22,2s-2.25-.95-2.25-2,.98-2,2.25-2,2.22.92,2.22,2ZM100.87,10.05v12.49c0,.63-.92,1.3-2.06,1.3s-2.03-.67-2.03-1.3v-12.49c0-.76.86-1.27,2.03-1.27s2.06.51,2.06,1.27Z"/>
        <path class="cls-1" d="M108.16,8.78h3.87c.67,0,1.05.76,1.05,1.49s-.38,1.49-1.05,1.49h-3.87v10.81c0,.76-.98,1.27-2.09,1.27s-2-.51-2-1.27V6.21c0-3.55,2.54-6.21,5.58-6.21h1.87c1.05,0,1.55.86,1.55,1.71s-.51,1.74-1.55,1.74h-1.01c-1.36,0-2.35.89-2.35,2.31v3.01Z"/>
        <path class="cls-1" d="M118.94,8.78h3.87c.67,0,1.05.76,1.05,1.49s-.38,1.49-1.05,1.49h-3.87v10.81c0,.76-.98,1.27-2.09,1.27s-2-.51-2-1.27V6.21c0-3.55,2.54-6.21,5.58-6.21h1.87c1.05,0,1.55.86,1.55,1.71s-.51,1.74-1.55,1.74h-1.01c-1.36,0-2.35.89-2.35,2.31v3.01Z"/>
        <path class="cls-1" d="M138.18,14.55c0,2.69-1.52,2.82-2.95,2.82h-6.43v.48c0,1.84,1.49,3.04,3.71,3.04,2.09,0,2.95-1.2,3.9-1.2s1.55,1.17,1.55,1.81c0,1.08-2.19,2.63-5.58,2.63-4.5,0-7.67-2.6-7.67-6.5v-2.69c0-3.42,3.07-6.34,6.94-6.34,3.49,0,6.53,2.44,6.53,5.96ZM133.42,14.96c.67,0,.92-.16.92-.86,0-1.49-1.27-2.5-2.79-2.5-1.43,0-2.76.95-2.76,2.47v.89h4.63Z"/>
        <path class="cls-1" d="M148.35,12.17c-1.84,0-3.64,1.81-3.64,4.69v5.67c0,.63-.95,1.3-2.09,1.3s-2-.67-2-1.3v-12.49c0-.76.82-1.27,2-1.27,1.01,0,1.84.51,1.84,1.27v1.3c.63-1.36,2.16-2.76,3.9-2.76h.98c.76,0,1.49.82,1.49,1.77s-.73,1.81-1.49,1.81h-.98Z"/>
        <path class="cls-1" d="M165.15,14.55c0,2.69-1.52,2.82-2.95,2.82h-6.43v.48c0,1.84,1.49,3.04,3.71,3.04,2.09,0,2.95-1.2,3.9-1.2s1.55,1.17,1.55,1.81c0,1.08-2.19,2.63-5.58,2.63-4.5,0-7.67-2.6-7.67-6.5v-2.69c0-3.42,3.07-6.34,6.94-6.34,3.49,0,6.53,2.44,6.53,5.96ZM160.39,14.96c.67,0,.92-.16.92-.86,0-1.49-1.27-2.5-2.79-2.5-1.43,0-2.76.95-2.76,2.47v.89h4.63Z"/>
        <path class="cls-1" d="M171.67,22.53c0,.63-.95,1.3-2.06,1.3-1.2,0-2.03-.67-2.03-1.3v-12.49c0-.76.82-1.27,2.03-1.27.98,0,1.81.51,1.81,1.27v.95c.6-1.24,2.12-2.41,4.25-2.41,2.92,0,5.45,2.92,5.45,6.43v7.51c0,.86-1.05,1.3-2.06,1.3-.95,0-2.03-.44-2.03-1.3v-7.51c0-1.43-1.24-2.85-2.76-2.85-1.3,0-2.6,1.08-2.6,2.85v7.51Z"/>
        <path class="cls-1" d="M188.22,18.7c0,1.24.44,1.68,1.77,1.68h1.24c1.17,0,1.74.86,1.74,1.71s-.57,1.74-1.74,1.74h-1.24c-3.8,0-5.86-1.55-5.86-5.13V3.33c0-.76,1.08-1.27,2.03-1.27,1.05,0,2.06.51,2.06,1.27v5.45h3.74c.67,0,1.05.76,1.05,1.49s-.38,1.49-1.05,1.49h-3.74v6.94Z"/>
      </g>
      <g>
        <path class="cls-1" d="M64.61,44.44s.02-.09.03-.15l2.95-9.6c.14-.46.7-.67,1.27-.67s1.14.21,1.28.67l2.95,9.6c.02.06.03.11.03.15,0,.47-.72.82-1.25.82-.34,0-.59-.11-.67-.4l-.58-2.03h-3.49l-.58,2.03c-.08.29-.34.4-.67.4-.53,0-1.25-.34-1.25-.82ZM70.18,41.28l-1.33-4.68-1.33,4.68h2.66Z"/>
        <path class="cls-1" d="M74.91,42.28v-1.22c0-1.76.99-3.13,3.3-3.13,1.43,0,2.44.59,2.44,1.19,0,.37-.31.96-.78.96-.34,0-.61-.43-1.51-.43-1.04,0-1.48.52-1.48,1.4v1.22c0,.89.44,1.4,1.49,1.4.92,0,1.14-.46,1.53-.46.53,0,.84.55.84.93,0,.61-1.08,1.25-2.52,1.25-2.3,0-3.31-1.34-3.31-3.13Z"/>
        <path class="cls-1" d="M88.65,40.9v3.74c0,.35-.41.63-.96.63-.5,0-.89-.27-.89-.63v-.44c-.55.63-1.27,1.21-2.32,1.21s-1.98-.64-1.98-2.03c0-1.76,1.45-2.24,3.56-2.24h.63v-.2c0-.66-.34-1.4-1.34-1.4-1.18,0-1.37.47-1.74.47-.44,0-.67-.53-.67-.98,0-.63,1.36-1.1,2.44-1.1,2.38,0,3.28,1.43,3.28,2.98ZM86.68,42.15h-.23c-1.02,0-1.98.11-1.98.96,0,.56.35.82.81.82.63,0,1.4-.72,1.4-1.46v-.32Z"/>
        <path class="cls-1" d="M97.65,34.4v10.24c0,.31-.41.63-.98.63-.49,0-.89-.32-.89-.63v-.44c-.31.63-1.14,1.21-2.12,1.21-1.42,0-2.67-1.49-2.67-3.13v-1.25c0-1.69,1.22-3.1,2.72-3.1.95,0,1.63.56,1.97,1.16v-4.68c0-.37.44-.61.99-.61s.98.24.98.61ZM92.97,42.28c0,.7.61,1.4,1.33,1.4.78,0,1.39-.81,1.39-1.13v-1.53c0-.85-.72-1.37-1.37-1.37-.75,0-1.34.69-1.34,1.37v1.25Z"/>
        <path class="cls-1" d="M106.55,40.8c0,1.3-.73,1.36-1.42,1.36h-3.1v.23c0,.88.72,1.46,1.79,1.46,1.01,0,1.42-.58,1.88-.58s.75.56.75.87c0,.52-1.05,1.27-2.69,1.27-2.17,0-3.69-1.25-3.69-3.13v-1.3c0-1.65,1.48-3.05,3.34-3.05,1.68,0,3.14,1.17,3.14,2.87ZM104.26,40.99c.32,0,.44-.08.44-.41,0-.72-.61-1.21-1.34-1.21-.69,0-1.33.46-1.33,1.19v.43h2.23Z"/>
        <path class="cls-1" d="M113.28,41.02c0-.85-.61-1.37-1.25-1.37-.59,0-1.19.47-1.19,1.37v3.62c0,.31-.46.63-.99.63-.58,0-.98-.32-.98-.63v-6.01c0-.37.4-.61.98-.61.47,0,.87.24.87.61v.46c.34-.6,1.01-1.16,2.01-1.16.87,0,1.59.63,1.91,1.53.53-1.04,1.42-1.53,2.3-1.53,1.39,0,2.72,1.11,2.72,3.1v3.62c0,.31-.46.63-.99.63s-.98-.32-.98-.63v-3.62c0-.92-.63-1.39-1.24-1.39s-1.21.49-1.21,1.37v3.65c0,.43-.5.61-.99.61-.46,0-.98-.18-.98-.61v-3.63Z"/>
        <path class="cls-1" d="M121.55,39.12c-.03-.08-.06-.17-.06-.26,0-.52.81-.95,1.31-.95.26,0,.49.09.56.34l1.83,4.56,1.48-4.56c.08-.24.31-.34.52-.34.47,0,1.34.43,1.34.98,0,.06-.02.15-.05.23l-2.23,5.69c-.72,1.83-1.14,3.83-3.88,3.83-.5,0-.9-.11-.9-.84,0-.44.14-.82.5-.82.67,0,2.08-.41,2.18-2.24l-2.62-5.62Z"/>
      </g>
    </g>
  </g>
</svg>