<?xml version="1.0" encoding="UTF-8"?>
<svg id="Vrstva_2" xmlns="http://www.w3.org/2000/svg" viewBox="0 0 193 48.64">
  <defs>
    <style>
      .cls-1 {
        fill: #fff;
      }
    </style>
  </defs>
  <g id="Popisky">
    <g>
      <path class="cls-1" d="M14.71.67H1.3C.41.67,0,1.62,0,2.5c0,1.01.48,1.87,1.3,1.87h4.66v18.16c0,.86,1.01,1.3,2.06,1.3s2.06-.44,2.06-1.3V4.37h4.63c.82,0,1.3-.89,1.3-1.87,0-.89-.41-1.84-1.3-1.84Z"/>
      <path class="cls-1" d="M26.05,8.59c-2,0-3.42,1.17-3.99,2.41V1.27c0-.76-.95-1.27-2.06-1.27-1.2,0-2.03.51-2.03,1.27v21.27c0,.63.82,1.3,2.03,1.3,1.11,0,2.06-.67,2.06-1.3v-7.51c0-1.77,1.3-2.85,2.6-2.85,1.49,0,2.76,1.43,2.76,2.85v7.51c0,.86,1.08,1.3,2.03,1.3,1.01,0,2.06-.44,2.06-1.3v-7.51c0-3.52-2.54-6.43-5.45-6.43Z"/>
      <path class="cls-1" d="M36.57,8.78c-1.17,0-2.03.51-2.03,1.27v12.49c0,.63.86,1.3,2.03,1.3s2.06-.67,2.06-1.3v-12.49c0-.76-.92-1.27-2.06-1.27Z"/>
      <path class="cls-1" d="M36.57,1.43c-1.27,0-2.25.92-2.25,2s.98,2,2.25,2,2.22-.95,2.22-2-.98-2-2.22-2Z"/>
      <path class="cls-1" d="M49.88,8.59c-2.12,0-3.64,1.17-4.25,2.41v-.95c0-.76-.82-1.27-1.81-1.27-1.2,0-2.03.51-2.03,1.27v12.49c0,.63.82,1.3,2.03,1.3,1.11,0,2.06-.67,2.06-1.3v-7.51c0-1.77,1.3-2.85,2.6-2.85,1.52,0,2.76,1.43,2.76,2.85v7.51c0,.86,1.08,1.3,2.03,1.3,1.01,0,2.06-.44,2.06-1.3v-7.51c0-3.52-2.54-6.43-5.45-6.43Z"/>
      <path class="cls-1" d="M69.75,24.09c.98,0,2.31-1.08,2.31-2.03,0-.22-.06-.44-.22-.67l-4.66-6.66,3.74-3.39c.22-.22.35-.48.35-.76,0-.92-1.11-1.96-2-1.96-.32,0-.6.13-.82.32l-5.96,5.61V1.27c0-.76-.95-1.27-2.09-1.27s-2,.51-2,1.27v21.27c0,.63.82,1.3,2,1.3s2.09-.67,2.09-1.3v-3.49l1.97-1.81,4.28,6.31c.25.35.6.54,1.01.54Z"/>
      <path class="cls-1" d="M93.59,22.53V1.27c0-.76-.86-1.27-2.03-1.27s-2.06.51-2.06,1.27v9.73c-.7-1.24-2.12-2.41-4.09-2.41-3.11,0-5.64,2.92-5.64,6.43v2.6c0,3.39,2.6,6.5,5.55,6.5,2.03,0,3.77-1.2,4.41-2.5v.92c0,.63.82,1.3,1.84,1.3,1.17,0,2.03-.67,2.03-1.3ZM89.5,18.19c0,.67-1.27,2.35-2.88,2.35-1.49,0-2.76-1.46-2.76-2.92v-2.6c0-1.43,1.24-2.85,2.79-2.85,1.36,0,2.85,1.08,2.85,2.85v3.17Z"/>
      <path class="cls-1" d="M100.87,22.53v-12.49c0-.76-.92-1.27-2.06-1.27s-2.03.51-2.03,1.27v12.49c0,.63.86,1.3,2.03,1.3s2.06-.67,2.06-1.3Z"/>
      <path class="cls-1" d="M96.56,3.42c0,1.05.98,2,2.25,2s2.22-.95,2.22-2-.98-2-2.22-2-2.25.92-2.25,2Z"/>
      <path class="cls-1" d="M113.08,10.27c0-.73-.38-1.49-1.05-1.49h-3.87v-3.01c0-1.43.98-2.31,2.35-2.31h1.01c1.05,0,1.55-.86,1.55-1.74s-.51-1.71-1.55-1.71h-1.87c-3.04,0-5.58,2.66-5.58,6.21v16.35c0,.76.86,1.27,2,1.27s2.09-.51,2.09-1.27v-10.81h3.87c.67,0,1.05-.73,1.05-1.49Z"/>
      <path class="cls-1" d="M121.28,3.45h1.01c1.05,0,1.55-.86,1.55-1.74s-.51-1.71-1.55-1.71h-1.87c-3.04,0-5.58,2.66-5.58,6.21v16.35c0,.76.86,1.27,2,1.27s2.09-.51,2.09-1.27v-10.81h3.87c.67,0,1.05-.73,1.05-1.49s-.38-1.49-1.05-1.49h-3.87v-3.01c0-1.43.98-2.31,2.35-2.31Z"/>
      <path class="cls-1" d="M135.23,17.37c1.43,0,2.95-.13,2.95-2.82,0-3.52-3.04-5.96-6.53-5.96-3.87,0-6.94,2.92-6.94,6.34v2.69c0,3.9,3.17,6.5,7.67,6.5,3.39,0,5.58-1.55,5.58-2.63,0-.63-.6-1.81-1.55-1.81s-1.81,1.2-3.9,1.2c-2.22,0-3.71-1.2-3.71-3.04v-.48h6.43ZM128.79,14.07c0-1.52,1.33-2.47,2.76-2.47,1.52,0,2.79,1.01,2.79,2.5,0,.7-.25.86-.92.86h-4.63v-.89Z"/>
      <path class="cls-1" d="M149.33,8.59h-.98c-1.74,0-3.26,1.39-3.9,2.76v-1.3c0-.76-.82-1.27-1.84-1.27-1.17,0-2,.51-2,1.27v12.49c0,.63.82,1.3,2,1.3s2.09-.67,2.09-1.3v-5.67c0-2.88,1.81-4.69,3.64-4.69h.98c.76,0,1.49-.82,1.49-1.81s-.73-1.77-1.49-1.77Z"/>
      <path class="cls-1" d="M162.2,17.37c1.43,0,2.95-.13,2.95-2.82,0-3.52-3.04-5.96-6.53-5.96-3.87,0-6.94,2.92-6.94,6.34v2.69c0,3.9,3.17,6.5,7.67,6.5,3.39,0,5.58-1.55,5.58-2.63,0-.63-.6-1.81-1.55-1.81s-1.81,1.2-3.9,1.2c-2.22,0-3.71-1.2-3.71-3.04v-.48h6.43ZM155.76,14.07c0-1.52,1.33-2.47,2.76-2.47,1.52,0,2.79,1.01,2.79,2.5,0,.7-.25.86-.92.86h-4.63v-.89Z"/>
      <path class="cls-1" d="M175.67,8.59c-2.12,0-3.64,1.17-4.25,2.41v-.95c0-.76-.82-1.27-1.81-1.27-1.2,0-2.03.51-2.03,1.27v12.49c0,.63.82,1.3,2.03,1.3,1.11,0,2.06-.67,2.06-1.3v-7.51c0-1.77,1.3-2.85,2.6-2.85,1.52,0,2.76,1.43,2.76,2.85v7.51c0,.86,1.08,1.3,2.03,1.3,1.01,0,2.06-.44,2.06-1.3v-7.51c0-3.52-2.54-6.43-5.45-6.43Z"/>
      <path class="cls-1" d="M191.23,20.38h-1.24c-1.33,0-1.77-.44-1.77-1.68v-6.94h3.74c.67,0,1.05-.73,1.05-1.49s-.38-1.49-1.05-1.49h-3.74V3.33c0-.76-1.01-1.27-2.06-1.27-.95,0-2.03.51-2.03,1.27v15.37c0,3.58,2.06,5.13,5.86,5.13h1.24c1.17,0,1.74-.86,1.74-1.74s-.57-1.71-1.74-1.71Z"/>
      <path class="cls-1" d="M70.13,34.69c-.14-.46-.7-.67-1.28-.67s-1.13.21-1.27.67l-2.95,9.6c-.01.06-.03.12-.03.15,0,.49.72.82,1.25.82.34,0,.6-.11.67-.4l.58-2.03h3.49l.58,2.03c.08.29.34.4.67.4.53,0,1.25-.35,1.25-.82,0-.05-.02-.09-.03-.15l-2.95-9.6ZM67.53,41.28l1.33-4.68,1.33,4.68h-2.66Z"/>
      <path class="cls-1" d="M79.9,43.22c-.38,0-.61.46-1.53.46-1.05,0-1.49-.52-1.49-1.4v-1.22c0-.89.44-1.4,1.48-1.4.9,0,1.17.43,1.51.43.47,0,.78-.6.78-.96,0-.59-1.01-1.19-2.44-1.19-2.3,0-3.3,1.37-3.3,3.13v1.22c0,1.79,1.01,3.13,3.31,3.13,1.43,0,2.52-.64,2.52-1.25,0-.38-.31-.93-.84-.93Z"/>
      <path class="cls-1" d="M85.37,37.93c-1.08,0-2.44.47-2.44,1.1,0,.44.23.98.67.98.37,0,.56-.47,1.74-.47,1.01,0,1.34.75,1.34,1.4v.2h-.63c-2.11,0-3.56.49-3.56,2.24,0,1.39.9,2.03,1.98,2.03s1.77-.58,2.32-1.21v.44c0,.35.38.63.89.63.55,0,.96-.27.96-.63v-3.74c0-1.54-.9-2.98-3.28-2.98ZM86.68,42.47c0,.75-.78,1.46-1.4,1.46-.46,0-.81-.26-.81-.82,0-.85.96-.96,1.98-.96h.23v.32Z"/>
      <path class="cls-1" d="M96.68,33.79c-.55,0-.99.24-.99.61v4.68c-.34-.6-1.02-1.16-1.97-1.16-1.49,0-2.72,1.4-2.72,3.1v1.25c0,1.63,1.25,3.13,2.67,3.13.98,0,1.82-.58,2.12-1.21v.44c0,.31.4.63.89.63.56,0,.98-.32.98-.63v-10.24c0-.37-.41-.61-.98-.61ZM95.68,42.55c0,.32-.61,1.13-1.39,1.13-.72,0-1.33-.7-1.33-1.4v-1.25c0-.69.6-1.37,1.34-1.37.66,0,1.37.52,1.37,1.37v1.53Z"/>
      <path class="cls-1" d="M105.13,42.15c.69,0,1.42-.06,1.42-1.36,0-1.69-1.46-2.87-3.14-2.87-1.86,0-3.34,1.4-3.34,3.05v1.3c0,1.88,1.53,3.13,3.69,3.13,1.63,0,2.69-.75,2.69-1.27,0-.31-.29-.87-.75-.87s-.87.58-1.88.58c-1.07,0-1.79-.58-1.79-1.46v-.23h3.1ZM102.03,40.57c0-.73.64-1.19,1.33-1.19.73,0,1.34.49,1.34,1.21,0,.34-.12.41-.44.41h-2.23v-.43Z"/>
      <path class="cls-1" d="M116.94,37.93c-.89,0-1.77.49-2.3,1.53-.32-.9-1.04-1.53-1.91-1.53-1.01,0-1.68.56-2.01,1.16v-.46c0-.37-.4-.61-.87-.61-.58,0-.98.24-.98.61v6.01c0,.31.4.63.98.63.53,0,.99-.32.99-.63v-3.62c0-.9.59-1.37,1.19-1.37.64,0,1.25.52,1.25,1.37v3.63c0,.43.52.61.98.61.49,0,.99-.18.99-.61v-3.65c0-.88.6-1.37,1.21-1.37s1.24.47,1.24,1.39v3.62c0,.31.46.63.98.63s.99-.32.99-.63v-3.62c0-1.98-1.33-3.1-2.72-3.1Z"/>
      <path class="cls-1" d="M127.2,37.91c-.21,0-.44.09-.52.34l-1.48,4.56-1.83-4.56c-.08-.24-.31-.34-.56-.34-.5,0-1.31.43-1.31.95,0,.09.03.18.06.26l2.62,5.62c-.11,1.83-1.51,2.24-2.18,2.24-.37,0-.5.38-.5.82,0,.73.4.84.9.84,2.73,0,3.16-2,3.88-3.83l2.23-5.69c.03-.08.05-.17.05-.23,0-.55-.87-.98-1.34-.98Z"/>
    </g>
  </g>
</svg>