<?xml version="1.0" encoding="UTF-8"?>
<svg id="Vrstva_2" xmlns="http://www.w3.org/2000/svg" viewBox="0 0 37.39 38.75">
  <defs>
    <style>
      .cls-1 {
        fill: #fff;
      }
    </style>
  </defs>
  <g id="Elementy">
    <g>
      <g>
        <g id="_x3C_Radiální_opakování_x3E_">
          <path class="cls-1" d="M1.96,26.49c-.62,0-1.2-.35-1.47-.95-.36-.81,0-1.76.82-2.12l1.21-.54c.81-.35,1.76,0,2.12.82.36.81,0,1.76-.82,2.12l-1.21.54c-.21.09-.43.14-.65.14Z"/>
        </g>
        <g id="_x3C_Radiální_opakování_x3E_-2" data-name="_x3C_Radiální_opakování_x3E_">
          <path class="cls-1" d="M2.84,13.68c-.19,0-.38-.03-.57-.11l-1.24-.47c-.83-.32-1.24-1.24-.93-2.07.32-.83,1.25-1.24,2.07-.93l1.24.47c.83.32,1.24,1.24.93,2.07-.24.64-.85,1.03-1.5,1.03Z"/>
        </g>
        <g id="_x3C_Radiální_opakování_x3E_-3" data-name="_x3C_Radiální_opakování_x3E_">
          <path class="cls-1" d="M11.28,4.78c-.62,0-1.2-.35-1.47-.95l-.54-1.21c-.36-.81,0-1.76.82-2.12.81-.36,1.76,0,2.12.82l.54,1.21c.36.81,0,1.76-.82,2.12-.21.09-.43.14-.65.14Z"/>
        </g>
        <g id="_x3C_Radiální_opakování_x3E_-4" data-name="_x3C_Radiální_opakování_x3E_">
          <path class="cls-1" d="M23.55,4.45c-.19,0-.38-.03-.57-.11-.83-.32-1.24-1.24-.93-2.07l.47-1.24c.32-.83,1.25-1.25,2.07-.93.83.32,1.24,1.24.93,2.07l-.47,1.24c-.24.64-.85,1.03-1.5,1.03Z"/>
        </g>
        <g id="_x3C_Radiální_opakování_x3E_-5" data-name="_x3C_Radiální_opakování_x3E_">
          <path class="cls-1" d="M32.46,12.89c-.61,0-1.2-.35-1.47-.95-.36-.81,0-1.76.81-2.12l1.21-.54c.81-.37,1.76,0,2.12.81.36.81,0,1.76-.81,2.12l-1.21.54c-.21.1-.43.14-.65.14Z"/>
        </g>
      </g>
      <g>
        <rect class="cls-1" x="10.84" y="28.34" width="13.93" height="4.78"/>
        <path class="cls-1" d="M17.81,38.75c2.36,0,4.27-1.91,4.27-4.27h-8.54c0,2.36,1.91,4.27,4.27,4.27Z"/>
        <path class="cls-1" d="M37.33,24.73c-.48-2.33-4.64-4.23-7.8-5.35.06-.49.13-.98.13-1.48,0-3.16-1.23-6.14-3.47-8.38-4.47-4.48-12.28-4.48-16.76,0-4.62,4.62-4.62,12.14,0,16.76l.47.47h15.59c-.38-.26-.84-.54-1.42-.85-3.82-2.04-3.58-.71-4.99-1.34-1.09-.48-1.7-1.23-1.05-2.61h.01c-.05.17-.09.34-.08.52.05.89.8,1.57,1.68,1.52,2.03-.14,4.89,1.11,7.41,2.18,2.43,1.03,4.77,2.03,6.71,2.03.99,0,1.88-.26,2.62-.91.79-.69,1.13-1.62.94-2.56ZM16.54,17.94c0,.89-.72,1.61-1.61,1.61s-1.61-.72-1.61-1.61v-2.66c0-.89.72-1.61,1.61-1.61s1.61.72,1.61,1.61v2.66ZM19.74,12.79l2.46-.56c.86-.2,1.73.34,1.92,1.21s-.34,1.73-1.21,1.92l-.63.14v2.44c0,.89-.72,1.61-1.61,1.61s-1.61-.72-1.61-1.61v-2.36c-.26-.22-.46-.51-.54-.87-.2-.87.34-1.73,1.21-1.92ZM28.32,23.22c.12-.23.23-.48.34-.72,2.2.82,4.23,1.8,5.12,2.51-1.06-.07-3.79-1.08-5.46-1.79Z"/>
      </g>
    </g>
  </g>
</svg>