<?xml version="1.0" encoding="UTF-8"?>
<svg id="Vrstva_2" xmlns="http://www.w3.org/2000/svg" viewBox="0 0 57.2 38.35">
  <defs>
    <style>
      .cls-1 {
        fill: #fff;
      }
    </style>
  </defs>
  <g id="Elementy">
    <g>
      <path class="cls-1" d="M56.98,27.93c-.46-.76-1.51-1.02-2.27-.56l-3.58,2.12-2.18-3.54c-.46-.76-1.51-1.02-2.27-.56-.76.46-1.02,1.51-.56,2.27l2.13,3.52-3.52,2.13c-.77.51-1.02,1.51-.56,2.27.46.76,1.51,1.02,2.27.56l3.58-2.12,2.18,3.54c.46.76,1.51,1.02,2.27.56s1.02-1.51.56-2.27l-2.13-3.52,3.52-2.13c.76-.46,1.02-1.51.56-2.27Z"/>
      <path class="cls-1" d="M44.07,24.6c0-3.18-2.54-5.72-5.72-5.72s-5.72,2.54-5.72,5.72c0,2.77,1.94,5.06,4.54,5.6-6.45-.76-8.45-5.51-9.05-7.85.68-1.51,1.06-3.15,1.06-4.85,0-3.16-1.23-6.14-3.47-8.38-4.48-4.48-12.28-4.48-16.76,0-4.62,4.62-4.62,12.14,0,16.76l.47.47h15.82l.47-.47c.08-.08.14-.18.22-.26,1.59,3.51,5.15,7.9,13.05,7.9.89,0,1.61-.72,1.61-1.61s-.72-1.61-1.61-1.61c-.1,0-.19-.01-.29-.02,3.01-.18,5.38-2.63,5.38-5.69ZM17.94,19.59c0,.89-.72,1.61-1.61,1.61s-1.61-.72-1.61-1.61v-1.45c0-.89.72-1.61,1.61-1.61s1.61.72,1.61,1.61v1.45ZM23.69,19.59c0,.89-.72,1.61-1.61,1.61s-1.61-.72-1.61-1.61v-1.45c0-.89.72-1.61,1.61-1.61s1.61.72,1.61,1.61v1.45ZM38.4,27.36c-1.54,0-2.75-1.22-2.75-2.75-.05-1.54,1.22-2.75,2.75-2.75s2.75,1.22,2.75,2.75-1.22,2.75-2.75,2.75Z"/>
      <path class="cls-1" d="M2.52,22.88l-1.21.54c-.81.36-1.17,1.31-.82,2.12.27.6.85.95,1.47.95.22,0,.44-.04.65-.14l1.21-.54c.81-.36,1.17-1.31.82-2.12-.36-.81-1.31-1.17-2.12-.82Z"/>
      <path class="cls-1" d="M1.03,13.1l1.24.47c.19.07.38.11.57.11.65,0,1.25-.39,1.5-1.03.32-.83-.1-1.76-.92-2.07l-1.24-.47c-.82-.32-1.76.1-2.07.92-.32.83.1,1.76.92,2.07Z"/>
      <path class="cls-1" d="M9.82,3.82c.27.6.85.95,1.47.95.22,0,.44-.04.65-.14.81-.36,1.17-1.31.81-2.12l-.54-1.21c-.36-.81-1.31-1.18-2.12-.81-.81.36-1.17,1.31-.81,2.12l.54,1.21Z"/>
      <path class="cls-1" d="M22.98,4.34c.19.07.38.11.57.11.65,0,1.25-.39,1.5-1.03l.47-1.24c.32-.83-.1-1.76-.92-2.07-.82-.32-1.76.1-2.07.92l-.47,1.24c-.32.83.1,1.76.92,2.07Z"/>
      <path class="cls-1" d="M32.46,12.89c.22,0,.44-.04.65-.14l1.21-.54c.81-.36,1.17-1.31.81-2.12-.36-.81-1.31-1.17-2.12-.81l-1.21.54c-.81.36-1.17,1.31-.81,2.12.27.6.85.95,1.47.95Z"/>
      <rect class="cls-1" x="10.37" y="27.93" width="13.93" height="4.78"/>
      <path class="cls-1" d="M17.34,38.35c2.36,0,4.27-1.91,4.27-4.27h-8.54c0,2.36,1.91,4.27,4.27,4.27Z"/>
    </g>
  </g>
</svg>